<svg xmlns="http://www.w3.org/2000/svg" xmlns:xlink="http://www.w3.org/1999/xlink" width="1080" viewBox="0 0 810 809.999993" height="1080" preserveAspectRatio="xMidYMid meet"><defs><g></g><clipPath id="9b9e7e9de4"><path d="M 109 183.109375 L 219 183.109375 L 219 291 L 109 291 Z M 109 183.109375 " clip-rule="nonzero"></path></clipPath><clipPath id="eb785a999b"><path d="M 37.414062 299 L 314.914062 299 L 314.914062 472 L 37.414062 472 Z M 37.414062 299 " clip-rule="nonzero"></path></clipPath><clipPath id="7c22349a82"><path d="M 203 183.109375 L 314.914062 183.109375 L 314.914062 192 L 203 192 Z M 203 183.109375 " clip-rule="nonzero"></path></clipPath><clipPath id="217dce6976"><path d="M 591 183.109375 L 701 183.109375 L 701 291 L 591 291 Z M 591 183.109375 " clip-rule="nonzero"></path></clipPath><clipPath id="01df95f0a2"><path d="M 494.804688 299 L 772.304688 299 L 772.304688 472 L 494.804688 472 Z M 494.804688 299 " clip-rule="nonzero"></path></clipPath><clipPath id="ae353cc5f0"><path d="M 494.804688 183.109375 L 607 183.109375 L 607 192 L 494.804688 192 Z M 494.804688 183.109375 " clip-rule="nonzero"></path></clipPath><clipPath id="b812d41666"><path d="M 33.46875 451.785156 L 332.695312 451.785156 L 332.695312 472.578125 L 33.46875 472.578125 Z M 33.46875 451.785156 " clip-rule="nonzero"></path></clipPath><clipPath id="717d794162"><path d="M 41.71875 451.785156 L 324.378906 451.785156 C 328.9375 451.785156 332.628906 455.476562 332.628906 460.035156 L 332.628906 464.328125 C 332.628906 468.882812 328.9375 472.578125 324.378906 472.578125 L 41.71875 472.578125 C 37.164062 472.578125 33.46875 468.882812 33.46875 464.328125 L 33.46875 460.035156 C 33.46875 455.476562 37.164062 451.785156 41.71875 451.785156 Z M 41.71875 451.785156 " clip-rule="nonzero"></path></clipPath><clipPath id="0e1fc4e1f0"><path d="M 478.492188 451.785156 L 777.71875 451.785156 L 777.71875 472.578125 L 478.492188 472.578125 Z M 478.492188 451.785156 " clip-rule="nonzero"></path></clipPath><clipPath id="974586125f"><path d="M 486.742188 451.785156 L 769.398438 451.785156 C 773.957031 451.785156 777.648438 455.476562 777.648438 460.035156 L 777.648438 464.328125 C 777.648438 468.882812 773.957031 472.578125 769.398438 472.578125 L 486.742188 472.578125 C 482.183594 472.578125 478.492188 468.882812 478.492188 464.328125 L 478.492188 460.035156 C 478.492188 455.476562 482.183594 451.785156 486.742188 451.785156 Z M 486.742188 451.785156 " clip-rule="nonzero"></path></clipPath></defs><g fill="#8d0101" fill-opacity="1"><g transform="translate(37.413286, 599.033934)"><g><path d="M 33.15625 1.109375 C 24.425781 1.109375 17.4375 -1.628906 12.1875 -7.109375 C 6.9375 -12.585938 4.3125 -20.109375 4.3125 -29.671875 L 4.3125 -84.828125 C 4.3125 -96.710938 6.679688 -105.671875 11.421875 -111.703125 C 16.160156 -117.734375 23.585938 -120.75 33.703125 -120.75 C 42.523438 -120.75 49.628906 -118.332031 55.015625 -113.5 C 60.398438 -108.675781 63.09375 -101.71875 63.09375 -92.625 L 63.09375 -72.015625 L 39.28125 -72.015625 L 39.28125 -89.703125 C 39.28125 -93.128906 38.859375 -95.492188 38.015625 -96.796875 C 37.179688 -98.097656 35.742188 -98.75 33.703125 -98.75 C 31.566406 -98.75 30.101562 -98.003906 29.3125 -96.515625 C 28.53125 -95.035156 28.140625 -92.851562 28.140625 -89.96875 L 28.140625 -29.953125 C 28.140625 -26.785156 28.601562 -24.484375 29.53125 -23.046875 C 30.457031 -21.609375 31.847656 -20.890625 33.703125 -20.890625 C 37.421875 -20.890625 39.28125 -23.910156 39.28125 -29.953125 L 39.28125 -51.53125 L 63.375 -51.53125 L 63.375 -28.96875 C 63.375 -8.914062 53.300781 1.109375 33.15625 1.109375 Z M 33.15625 1.109375 "></path></g></g></g><g fill="#8d0101" fill-opacity="1"><g transform="translate(103.435186, 599.033934)"><g><path d="M 33.84375 1.109375 C 24.1875 1.109375 16.847656 -1.835938 11.828125 -7.734375 C 6.816406 -13.628906 4.3125 -21.914062 4.3125 -32.59375 L 4.3125 -89.5625 C 4.3125 -99.863281 6.816406 -107.632812 11.828125 -112.875 C 16.847656 -118.125 24.1875 -120.75 33.84375 -120.75 C 43.5 -120.75 50.832031 -118.125 55.84375 -112.875 C 60.863281 -107.632812 63.375 -99.863281 63.375 -89.5625 L 63.375 -32.59375 C 63.375 -21.820312 60.863281 -13.507812 55.84375 -7.65625 C 50.832031 -1.8125 43.5 1.109375 33.84375 1.109375 Z M 33.84375 -20.890625 C 35.976562 -20.890625 37.414062 -21.816406 38.15625 -23.671875 C 38.90625 -25.535156 39.28125 -28.140625 39.28125 -31.484375 L 39.28125 -89.96875 C 39.28125 -92.570312 38.929688 -94.6875 38.234375 -96.3125 C 37.535156 -97.9375 36.117188 -98.75 33.984375 -98.75 C 29.992188 -98.75 28 -95.734375 28 -89.703125 L 28 -31.34375 C 28 -27.90625 28.414062 -25.300781 29.25 -23.53125 C 30.082031 -21.769531 31.613281 -20.890625 33.84375 -20.890625 Z M 33.84375 -20.890625 "></path></g></g></g><g fill="#8d0101" fill-opacity="1"><g transform="translate(171.128529, 599.033934)"><g><path d="M 5.296875 0 L 5.296875 -119.640625 L 29.953125 -119.640625 L 40.953125 -62.390625 L 40.953125 -119.640625 L 64.0625 -119.640625 L 64.0625 0 L 40.671875 0 L 28.6875 -59.890625 L 28.6875 0 Z M 5.296875 0 "></path></g></g></g><g fill="#8d0101" fill-opacity="1"><g transform="translate(240.493317, 599.033934)"><g><path d="M 33.703125 1.109375 C 22.835938 1.109375 14.988281 -1.582031 10.15625 -6.96875 C 5.332031 -12.351562 2.921875 -21.035156 2.921875 -33.015625 L 2.921875 -44.703125 L 26.46875 -44.703125 L 26.46875 -29.8125 C 26.46875 -23.863281 28.367188 -20.890625 32.171875 -20.890625 C 34.304688 -20.890625 35.789062 -21.515625 36.625 -22.765625 C 37.46875 -24.023438 37.890625 -26.140625 37.890625 -29.109375 C 37.890625 -33.003906 37.421875 -36.226562 36.484375 -38.78125 C 35.554688 -41.34375 34.375 -43.484375 32.9375 -45.203125 C 31.5 -46.921875 28.921875 -49.585938 25.203125 -53.203125 L 14.90625 -63.515625 C 6.914062 -71.316406 2.921875 -79.953125 2.921875 -89.421875 C 2.921875 -99.628906 5.265625 -107.398438 9.953125 -112.734375 C 14.648438 -118.078125 21.5 -120.75 30.5 -120.75 C 41.269531 -120.75 49.019531 -117.894531 53.75 -112.1875 C 58.488281 -106.476562 60.859375 -97.539062 60.859375 -85.375 L 36.484375 -85.375 L 36.359375 -93.59375 C 36.359375 -95.175781 35.914062 -96.429688 35.03125 -97.359375 C 34.144531 -98.285156 32.914062 -98.75 31.34375 -98.75 C 29.476562 -98.75 28.082031 -98.238281 27.15625 -97.21875 C 26.226562 -96.195312 25.765625 -94.804688 25.765625 -93.046875 C 25.765625 -89.140625 27.992188 -85.097656 32.453125 -80.921875 L 46.375 -67.546875 C 49.625 -64.390625 52.316406 -61.394531 54.453125 -58.5625 C 56.585938 -55.726562 58.304688 -52.382812 59.609375 -48.53125 C 60.910156 -44.6875 61.5625 -40.117188 61.5625 -34.828125 C 61.5625 -23.023438 59.398438 -14.082031 55.078125 -8 C 50.765625 -1.925781 43.640625 1.109375 33.703125 1.109375 Z M 33.703125 1.109375 "></path></g></g></g><g fill="#8d0101" fill-opacity="1"><g transform="translate(304.70449, 599.033934)"><g><path d="M 33.015625 1.109375 C 23.171875 1.109375 15.859375 -1.671875 11.078125 -7.234375 C 6.296875 -12.804688 3.90625 -21.070312 3.90625 -32.03125 L 3.90625 -119.640625 L 27.15625 -119.640625 L 27.15625 -33.015625 C 27.15625 -29.203125 27.523438 -26.226562 28.265625 -24.09375 C 29.015625 -21.957031 30.597656 -20.890625 33.015625 -20.890625 C 35.421875 -20.890625 36.992188 -21.929688 37.734375 -24.015625 C 38.484375 -26.109375 38.859375 -29.109375 38.859375 -33.015625 L 38.859375 -119.640625 L 62.125 -119.640625 L 62.125 -32.03125 C 62.125 -21.070312 59.734375 -12.804688 54.953125 -7.234375 C 50.171875 -1.671875 42.859375 1.109375 33.015625 1.109375 Z M 33.015625 1.109375 "></path></g></g></g><g fill="#8d0101" fill-opacity="1"><g transform="translate(370.726389, 599.033934)"><g><path d="M 5.296875 0 L 5.296875 -119.640625 L 29.25 -119.640625 L 29.25 -20.328125 L 53.90625 -20.328125 L 53.90625 0 Z M 5.296875 0 "></path></g></g></g><g fill="#8d0101" fill-opacity="1"><g transform="translate(426.023213, 599.033934)"><g><path d="M 15.59375 0 L 15.59375 -96.65625 L 1.390625 -96.65625 L 1.390625 -119.640625 L 53.765625 -119.640625 L 53.765625 -96.65625 L 39.5625 -96.65625 L 39.5625 0 Z M 15.59375 0 "></path></g></g></g><g fill="#8d0101" fill-opacity="1"><g transform="translate(481.180754, 599.033934)"><g><path d="M 2.09375 0 L 13.65625 -119.640625 L 54.1875 -119.640625 L 65.59375 0 L 42.90625 0 L 41.234375 -19.359375 L 26.734375 -19.359375 L 25.34375 0 Z M 28.546875 -38.4375 L 39.421875 -38.4375 L 34.125 -99.3125 L 33.015625 -99.3125 Z M 28.546875 -38.4375 "></path></g></g></g><g fill="#8d0101" fill-opacity="1"><g transform="translate(548.734818, 599.033934)"><g><path d="M 15.59375 0 L 15.59375 -96.65625 L 1.390625 -96.65625 L 1.390625 -119.640625 L 53.765625 -119.640625 L 53.765625 -96.65625 L 39.5625 -96.65625 L 39.5625 0 Z M 15.59375 0 "></path></g></g></g><g fill="#8d0101" fill-opacity="1"><g transform="translate(603.89236, 599.033934)"><g><path d="M 4.171875 0 L 4.171875 -119.640625 L 27.296875 -119.640625 L 27.296875 0 Z M 4.171875 0 "></path></g></g></g><g fill="#8d0101" fill-opacity="1"><g transform="translate(635.510462, 599.033934)"><g><path d="M 33.84375 1.109375 C 24.1875 1.109375 16.847656 -1.835938 11.828125 -7.734375 C 6.816406 -13.628906 4.3125 -21.914062 4.3125 -32.59375 L 4.3125 -89.5625 C 4.3125 -99.863281 6.816406 -107.632812 11.828125 -112.875 C 16.847656 -118.125 24.1875 -120.75 33.84375 -120.75 C 43.5 -120.75 50.832031 -118.125 55.84375 -112.875 C 60.863281 -107.632812 63.375 -99.863281 63.375 -89.5625 L 63.375 -32.59375 C 63.375 -21.820312 60.863281 -13.507812 55.84375 -7.65625 C 50.832031 -1.8125 43.5 1.109375 33.84375 1.109375 Z M 33.84375 -20.890625 C 35.976562 -20.890625 37.414062 -21.816406 38.15625 -23.671875 C 38.90625 -25.535156 39.28125 -28.140625 39.28125 -31.484375 L 39.28125 -89.96875 C 39.28125 -92.570312 38.929688 -94.6875 38.234375 -96.3125 C 37.535156 -97.9375 36.117188 -98.75 33.984375 -98.75 C 29.992188 -98.75 28 -95.734375 28 -89.703125 L 28 -31.34375 C 28 -27.90625 28.414062 -25.300781 29.25 -23.53125 C 30.082031 -21.769531 31.613281 -20.890625 33.84375 -20.890625 Z M 33.84375 -20.890625 "></path></g></g></g><g fill="#8d0101" fill-opacity="1"><g transform="translate(703.203805, 599.033934)"><g><path d="M 5.296875 0 L 5.296875 -119.640625 L 29.953125 -119.640625 L 40.953125 -62.390625 L 40.953125 -119.640625 L 64.0625 -119.640625 L 64.0625 0 L 40.671875 0 L 28.6875 -59.890625 L 28.6875 0 Z M 5.296875 0 "></path></g></g></g><g clip-path="url(#9b9e7e9de4)"><path fill="#8d0101" d="M 163.992188 290.664062 C 165.769531 290.664062 167.542969 290.578125 169.308594 290.402344 C 171.078125 290.226562 172.832031 289.96875 174.574219 289.621094 C 176.320312 289.273438 178.039062 288.84375 179.738281 288.328125 C 181.441406 287.8125 183.109375 287.214844 184.753906 286.535156 C 186.394531 285.855469 188 285.09375 189.566406 284.257812 C 191.132812 283.421875 192.652344 282.507812 194.132812 281.519531 C 195.609375 280.535156 197.035156 279.476562 198.40625 278.347656 C 199.78125 277.222656 201.09375 276.03125 202.351562 274.773438 C 203.609375 273.519531 204.800781 272.203125 205.925781 270.828125 C 207.054688 269.457031 208.113281 268.03125 209.097656 266.554688 C 210.085938 265.078125 210.996094 263.554688 211.835938 261.988281 C 212.671875 260.421875 213.429688 258.816406 214.113281 257.175781 C 214.792969 255.535156 215.390625 253.863281 215.90625 252.164062 C 216.421875 250.460938 216.851562 248.742188 217.199219 247 C 217.546875 245.253906 217.804688 243.5 217.980469 241.730469 C 218.152344 239.964844 218.242188 238.191406 218.242188 236.414062 C 218.242188 234.636719 218.152344 232.867188 217.980469 231.097656 C 217.804688 229.328125 217.546875 227.574219 217.199219 225.832031 C 216.851562 224.089844 216.421875 222.367188 215.90625 220.667969 C 215.390625 218.96875 214.792969 217.296875 214.113281 215.65625 C 213.429688 214.015625 212.671875 212.410156 211.835938 210.84375 C 210.996094 209.277344 210.085938 207.753906 209.097656 206.277344 C 208.113281 204.800781 207.054688 203.375 205.925781 202 C 204.800781 200.625 203.609375 199.3125 202.351562 198.054688 C 201.09375 196.800781 199.78125 195.609375 198.40625 194.480469 C 197.035156 193.351562 195.609375 192.296875 194.132812 191.308594 C 192.652344 190.320312 191.132812 189.410156 189.566406 188.574219 C 188 187.734375 186.394531 186.976562 184.753906 186.296875 C 183.109375 185.617188 181.441406 185.019531 179.738281 184.503906 C 178.039062 183.988281 176.320312 183.554688 174.574219 183.210938 C 172.832031 182.863281 171.078125 182.601562 169.308594 182.429688 C 167.542969 182.253906 165.769531 182.167969 163.992188 182.167969 C 162.214844 182.167969 160.445312 182.253906 158.675781 182.429688 C 156.90625 182.601562 155.152344 182.863281 153.410156 183.210938 C 151.667969 183.554688 149.945312 183.988281 148.246094 184.503906 C 146.546875 185.019531 144.875 185.617188 143.234375 186.296875 C 141.589844 186.976562 139.988281 187.734375 138.421875 188.574219 C 136.851562 189.410156 135.332031 190.320312 133.855469 191.308594 C 132.375 192.296875 130.953125 193.351562 129.578125 194.480469 C 128.203125 195.609375 126.890625 196.800781 125.632812 198.054688 C 124.378906 199.3125 123.183594 200.625 122.058594 202 C 120.929688 203.375 119.875 204.800781 118.886719 206.277344 C 117.898438 207.753906 116.988281 209.277344 116.148438 210.84375 C 115.3125 212.410156 114.554688 214.015625 113.875 215.65625 C 113.195312 217.296875 112.597656 218.96875 112.082031 220.667969 C 111.566406 222.367188 111.132812 224.089844 110.785156 225.832031 C 110.441406 227.574219 110.179688 229.328125 110.003906 231.097656 C 109.832031 232.867188 109.746094 234.636719 109.746094 236.414062 C 109.746094 238.191406 109.832031 239.964844 110.003906 241.730469 C 110.179688 243.5 110.441406 245.253906 110.785156 247 C 111.132812 248.742188 111.566406 250.460938 112.082031 252.164062 C 112.597656 253.863281 113.195312 255.535156 113.875 257.175781 C 114.554688 258.816406 115.3125 260.421875 116.148438 261.988281 C 116.988281 263.554688 117.898438 265.078125 118.886719 266.554688 C 119.875 268.03125 120.929688 269.457031 122.058594 270.828125 C 123.183594 272.203125 124.378906 273.519531 125.632812 274.773438 C 126.890625 276.03125 128.203125 277.222656 129.578125 278.347656 C 130.953125 279.476562 132.375 280.535156 133.855469 281.519531 C 135.332031 282.507812 136.851562 283.421875 138.421875 284.257812 C 139.988281 285.09375 141.589844 285.855469 143.234375 286.535156 C 144.875 287.214844 146.546875 287.8125 148.246094 288.328125 C 149.945312 288.84375 151.667969 289.273438 153.410156 289.621094 C 155.152344 289.96875 156.90625 290.226562 158.675781 290.402344 C 160.445312 290.578125 162.214844 290.664062 163.992188 290.664062 Z M 163.992188 200.25 C 165.175781 200.25 166.359375 200.308594 167.539062 200.421875 C 168.714844 200.539062 169.886719 200.714844 171.046875 200.945312 C 172.210938 201.175781 173.359375 201.464844 174.492188 201.808594 C 175.625 202.152344 176.738281 202.550781 177.832031 203.003906 C 178.925781 203.457031 179.996094 203.960938 181.039062 204.519531 C 182.085938 205.078125 183.101562 205.6875 184.085938 206.34375 C 185.070312 207.003906 186.019531 207.707031 186.9375 208.457031 C 187.851562 209.210938 188.726562 210.003906 189.566406 210.84375 C 190.402344 211.679688 191.199219 212.554688 191.949219 213.472656 C 192.699219 214.386719 193.40625 215.335938 194.0625 216.324219 C 194.722656 217.308594 195.328125 218.320312 195.886719 219.367188 C 196.445312 220.410156 196.953125 221.480469 197.40625 222.574219 C 197.859375 223.667969 198.257812 224.785156 198.601562 225.917969 C 198.945312 227.050781 199.230469 228.199219 199.464844 229.359375 C 199.695312 230.519531 199.867188 231.691406 199.984375 232.871094 C 200.101562 234.050781 200.15625 235.230469 200.15625 236.414062 C 200.15625 237.597656 200.101562 238.78125 199.984375 239.960938 C 199.867188 241.140625 199.695312 242.308594 199.464844 243.46875 C 199.230469 244.632812 198.945312 245.78125 198.601562 246.914062 C 198.257812 248.046875 197.859375 249.160156 197.40625 250.253906 C 196.953125 251.347656 196.445312 252.417969 195.886719 253.464844 C 195.328125 254.507812 194.722656 255.523438 194.0625 256.507812 C 193.40625 257.492188 192.699219 258.441406 191.949219 259.359375 C 191.199219 260.273438 190.402344 261.152344 189.566406 261.988281 C 188.726562 262.824219 187.851562 263.621094 186.9375 264.371094 C 186.019531 265.121094 185.070312 265.828125 184.085938 266.484375 C 183.101562 267.144531 182.085938 267.75 181.039062 268.308594 C 179.996094 268.867188 178.925781 269.375 177.832031 269.828125 C 176.738281 270.28125 175.625 270.679688 174.492188 271.023438 C 173.359375 271.367188 172.210938 271.65625 171.046875 271.886719 C 169.886719 272.117188 168.714844 272.289062 167.539062 272.40625 C 166.359375 272.523438 165.175781 272.582031 163.992188 272.582031 C 162.808594 272.582031 161.625 272.523438 160.449219 272.40625 C 159.269531 272.289062 158.097656 272.117188 156.9375 271.886719 C 155.773438 271.65625 154.628906 271.367188 153.496094 271.023438 C 152.359375 270.679688 151.246094 270.28125 150.152344 269.828125 C 149.058594 269.375 147.988281 268.867188 146.945312 268.308594 C 145.898438 267.75 144.886719 267.144531 143.898438 266.484375 C 142.914062 265.828125 141.964844 265.121094 141.050781 264.371094 C 140.132812 263.621094 139.257812 262.824219 138.417969 261.988281 C 137.582031 261.152344 136.789062 260.273438 136.035156 259.359375 C 135.285156 258.441406 134.582031 257.492188 133.921875 256.507812 C 133.265625 255.523438 132.65625 254.507812 132.097656 253.464844 C 131.539062 252.417969 131.035156 251.347656 130.578125 250.253906 C 130.125 249.160156 129.726562 248.046875 129.382812 246.914062 C 129.039062 245.78125 128.753906 244.632812 128.523438 243.46875 C 128.289062 242.308594 128.117188 241.140625 128 239.960938 C 127.886719 238.78125 127.828125 237.597656 127.828125 236.414062 C 127.828125 235.230469 127.886719 234.050781 128 232.871094 C 128.117188 231.691406 128.289062 230.519531 128.523438 229.359375 C 128.753906 228.199219 129.039062 227.050781 129.382812 225.917969 C 129.726562 224.785156 130.125 223.667969 130.578125 222.574219 C 131.035156 221.480469 131.539062 220.410156 132.097656 219.367188 C 132.65625 218.320312 133.265625 217.308594 133.921875 216.324219 C 134.582031 215.335938 135.285156 214.386719 136.035156 213.472656 C 136.789062 212.554688 137.582031 211.679688 138.417969 210.84375 C 139.257812 210.003906 140.132812 209.210938 141.050781 208.457031 C 141.964844 207.707031 142.914062 207.003906 143.898438 206.34375 C 144.886719 205.6875 145.898438 205.078125 146.945312 204.519531 C 147.988281 203.960938 149.058594 203.457031 150.152344 203.003906 C 151.246094 202.550781 152.359375 202.152344 153.496094 201.808594 C 154.628906 201.464844 155.773438 201.175781 156.9375 200.945312 C 158.097656 200.714844 159.269531 200.539062 160.449219 200.421875 C 161.625 200.308594 162.808594 200.25 163.992188 200.25 Z M 163.992188 200.25 " fill-opacity="1" fill-rule="nonzero"></path></g><g clip-path="url(#eb785a999b)"><path fill="#8d0101" d="M 607.019531 453.410156 L 582.609375 453.410156 C 584.621094 450.820312 586.167969 447.976562 587.25 444.882812 C 588.332031 441.789062 588.894531 438.601562 588.9375 435.324219 L 588.9375 353.953125 C 588.9375 324.027344 560.546875 299.703125 525.648438 299.703125 L 453.316406 299.703125 C 422.035156 299.703125 395.996094 319.324219 391.023438 344.910156 L 353.863281 344.910156 C 352.46875 344.902344 351.148438 345.203125 349.894531 345.804688 C 348.640625 346.410156 347.582031 347.253906 346.71875 348.347656 C 345.863281 349.449219 345.292969 350.679688 345.003906 352.046875 C 344.71875 353.414062 344.75 354.769531 345.089844 356.121094 L 369.414062 453.410156 L 284.0625 453.410156 L 308.65625 356.121094 C 308.996094 354.769531 309.027344 353.414062 308.742188 352.046875 C 308.453125 350.679688 307.882812 349.449219 307.027344 348.347656 C 306.136719 347.21875 305.035156 346.347656 303.730469 345.746094 C 302.425781 345.140625 301.050781 344.863281 299.613281 344.910156 L 262.453125 344.910156 C 257.480469 319.324219 231.441406 299.703125 200.15625 299.703125 L 127.828125 299.703125 C 92.925781 299.703125 64.539062 324.027344 64.539062 353.953125 L 64.539062 435.324219 C 64.578125 438.601562 65.140625 441.789062 66.226562 444.882812 C 67.308594 447.976562 68.855469 450.820312 70.867188 453.410156 L 46.453125 453.410156 C 45.859375 453.410156 45.273438 453.464844 44.691406 453.582031 C 44.109375 453.699219 43.542969 453.871094 42.996094 454.097656 C 42.445312 454.324219 41.925781 454.601562 41.429688 454.933594 C 40.9375 455.261719 40.480469 455.636719 40.0625 456.054688 C 39.640625 456.476562 39.265625 456.933594 38.9375 457.425781 C 38.605469 457.921875 38.328125 458.441406 38.101562 458.988281 C 37.875 459.539062 37.703125 460.101562 37.585938 460.6875 C 37.472656 461.269531 37.414062 461.855469 37.414062 462.449219 C 37.414062 463.042969 37.472656 463.632812 37.585938 464.214844 C 37.703125 464.796875 37.875 465.359375 38.101562 465.910156 C 38.328125 466.457031 38.605469 466.980469 38.9375 467.472656 C 39.265625 467.964844 39.640625 468.421875 40.0625 468.84375 C 40.480469 469.261719 40.9375 469.636719 41.429688 469.96875 C 41.925781 470.296875 42.445312 470.574219 42.996094 470.800781 C 43.542969 471.03125 44.109375 471.203125 44.691406 471.316406 C 45.273438 471.433594 45.859375 471.492188 46.453125 471.492188 L 607.019531 471.492188 C 607.613281 471.492188 608.203125 471.433594 608.785156 471.316406 C 609.367188 471.203125 609.933594 471.03125 610.480469 470.804688 C 611.027344 470.574219 611.550781 470.296875 612.042969 469.96875 C 612.535156 469.636719 612.992188 469.261719 613.414062 468.84375 C 613.832031 468.421875 614.207031 467.964844 614.539062 467.472656 C 614.867188 466.980469 615.144531 466.457031 615.375 465.910156 C 615.601562 465.359375 615.773438 464.796875 615.886719 464.214844 C 616.003906 463.632812 616.0625 463.042969 616.0625 462.449219 C 616.0625 461.855469 616.003906 461.269531 615.886719 460.6875 C 615.773438 460.101562 615.601562 459.539062 615.375 458.988281 C 615.144531 458.441406 614.867188 457.921875 614.539062 457.425781 C 614.207031 456.933594 613.832031 456.476562 613.414062 456.054688 C 612.992188 455.636719 612.535156 455.261719 612.042969 454.933594 C 611.550781 454.601562 611.027344 454.324219 610.480469 454.097656 C 609.933594 453.871094 609.367188 453.699219 608.785156 453.582031 C 608.203125 453.464844 607.613281 453.410156 607.019531 453.410156 Z M 191.117188 453.410156 L 109.746094 453.410156 C 95.007812 453.410156 82.621094 445.089844 82.621094 435.324219 L 82.621094 353.953125 C 82.621094 333.972656 102.871094 317.789062 127.828125 317.789062 L 200.15625 317.789062 C 202.4375 317.65625 204.714844 317.695312 206.988281 317.914062 C 209.261719 318.132812 211.507812 318.523438 213.722656 319.085938 C 215.933594 319.648438 218.09375 320.378906 220.195312 321.273438 C 222.296875 322.171875 224.316406 323.222656 226.253906 324.429688 C 228.195312 325.636719 230.03125 326.984375 231.761719 328.476562 C 233.492188 329.964844 235.101562 331.578125 236.582031 333.316406 C 238.066406 335.054688 239.40625 336.894531 240.605469 338.839844 C 241.804688 340.78125 242.851562 342.808594 243.738281 344.910156 L 173.035156 344.910156 C 172.519531 344.898438 172.011719 344.925781 171.503906 344.996094 C 170.996094 345.070312 170.496094 345.183594 170.007812 345.339844 C 169.519531 345.496094 169.050781 345.691406 168.59375 345.929688 C 168.140625 346.167969 167.707031 346.441406 167.300781 346.75 C 166.890625 347.0625 166.511719 347.402344 166.164062 347.777344 C 165.8125 348.152344 165.496094 348.554688 165.214844 348.984375 C 164.933594 349.410156 164.691406 349.859375 164.484375 350.332031 C 164.28125 350.800781 164.117188 351.285156 163.992188 351.78125 L 147.898438 417.242188 L 127.828125 417.242188 L 127.828125 390.117188 C 127.828125 389.523438 127.769531 388.9375 127.652344 388.355469 C 127.539062 387.773438 127.367188 387.207031 127.140625 386.660156 C 126.910156 386.109375 126.632812 385.589844 126.304688 385.09375 C 125.972656 384.601562 125.597656 384.144531 125.179688 383.726562 C 124.757812 383.304688 124.300781 382.929688 123.808594 382.601562 C 123.316406 382.269531 122.792969 381.992188 122.246094 381.765625 C 121.695312 381.539062 121.132812 381.367188 120.550781 381.25 C 119.96875 381.136719 119.378906 381.078125 118.785156 381.078125 C 118.191406 381.078125 117.605469 381.136719 117.023438 381.25 C 116.441406 381.367188 115.875 381.539062 115.324219 381.765625 C 114.777344 381.992188 114.257812 382.269531 113.761719 382.601562 C 113.269531 382.929688 112.8125 383.304688 112.390625 383.726562 C 111.972656 384.144531 111.597656 384.601562 111.269531 385.09375 C 110.9375 385.589844 110.660156 386.109375 110.433594 386.660156 C 110.207031 387.207031 110.035156 387.773438 109.917969 388.355469 C 109.800781 388.9375 109.746094 389.523438 109.746094 390.117188 L 109.746094 426.285156 C 109.746094 426.878906 109.800781 427.464844 109.917969 428.046875 C 110.035156 428.628906 110.207031 429.195312 110.433594 429.742188 C 110.660156 430.292969 110.9375 430.8125 111.269531 431.308594 C 111.597656 431.800781 111.972656 432.257812 112.390625 432.675781 C 112.8125 433.097656 113.269531 433.472656 113.761719 433.800781 C 114.257812 434.132812 114.777344 434.410156 115.324219 434.636719 C 115.875 434.863281 116.441406 435.035156 117.023438 435.152344 C 117.605469 435.265625 118.191406 435.324219 118.785156 435.324219 L 216.703125 435.324219 C 216.238281 436.640625 215.675781 437.910156 215.015625 439.140625 C 214.355469 440.367188 213.601562 441.539062 212.761719 442.648438 C 211.921875 443.761719 211 444.804688 209.996094 445.773438 C 208.996094 446.742188 207.925781 447.628906 206.785156 448.433594 C 205.644531 449.238281 204.453125 449.953125 203.203125 450.574219 C 201.953125 451.195312 200.667969 451.714844 199.335938 452.136719 C 198.007812 452.558594 196.652344 452.875 195.277344 453.089844 C 193.898438 453.304688 192.511719 453.410156 191.117188 453.410156 Z M 265.4375 453.410156 L 227.28125 453.410156 C 228.75 451.472656 230.054688 449.425781 231.1875 447.277344 C 232.320312 445.128906 233.273438 442.898438 234.042969 440.59375 C 234.808594 438.285156 235.386719 435.933594 235.769531 433.53125 C 236.152344 431.132812 236.335938 428.714844 236.324219 426.285156 C 236.324219 425.691406 236.265625 425.101562 236.148438 424.519531 C 236.035156 423.9375 235.863281 423.371094 235.636719 422.824219 C 235.410156 422.277344 235.128906 421.753906 234.800781 421.261719 C 234.46875 420.765625 234.09375 420.3125 233.675781 419.890625 C 233.253906 419.472656 232.800781 419.097656 232.304688 418.765625 C 231.8125 418.4375 231.289062 418.15625 230.742188 417.929688 C 230.195312 417.703125 229.628906 417.53125 229.046875 417.417969 C 228.464844 417.300781 227.875 417.242188 227.28125 417.242188 L 166.523438 417.242188 L 180.085938 362.996094 L 288.039062 362.996094 Z M 388.039062 453.410156 L 365.433594 362.996094 L 473.390625 362.996094 L 486.949219 417.242188 L 426.191406 417.242188 C 425.597656 417.242188 425.011719 417.300781 424.429688 417.417969 C 423.847656 417.53125 423.28125 417.703125 422.734375 417.929688 C 422.183594 418.15625 421.664062 418.4375 421.167969 418.765625 C 420.675781 419.097656 420.21875 419.472656 419.800781 419.890625 C 419.378906 420.3125 419.003906 420.765625 418.675781 421.261719 C 418.34375 421.753906 418.066406 422.277344 417.839844 422.824219 C 417.613281 423.371094 417.441406 423.9375 417.324219 424.519531 C 417.210938 425.101562 417.152344 425.691406 417.152344 426.285156 C 417.136719 428.714844 417.324219 431.132812 417.707031 433.53125 C 418.089844 435.933594 418.664062 438.285156 419.433594 440.59375 C 420.203125 442.898438 421.152344 445.128906 422.289062 447.277344 C 423.421875 449.425781 424.722656 451.472656 426.191406 453.410156 Z M 570.855469 435.324219 C 570.855469 445.089844 558.46875 453.410156 543.730469 453.410156 L 462.359375 453.410156 C 460.964844 453.410156 459.578125 453.304688 458.199219 453.089844 C 456.820312 452.875 455.46875 452.558594 454.136719 452.136719 C 452.808594 451.714844 451.519531 451.195312 450.269531 450.574219 C 449.023438 449.953125 447.828125 449.238281 446.691406 448.433594 C 445.550781 447.628906 444.480469 446.742188 443.476562 445.773438 C 442.476562 444.804688 441.554688 443.761719 440.714844 442.648438 C 439.871094 441.539062 439.121094 440.367188 438.460938 439.140625 C 437.796875 437.910156 437.234375 436.640625 436.769531 435.324219 L 534.6875 435.324219 C 535.28125 435.324219 535.871094 435.265625 536.453125 435.152344 C 537.035156 435.035156 537.601562 434.863281 538.148438 434.636719 C 538.699219 434.410156 539.21875 434.132812 539.710938 433.800781 C 540.207031 433.472656 540.664062 433.097656 541.082031 432.675781 C 541.503906 432.257812 541.878906 431.800781 542.207031 431.308594 C 542.535156 430.8125 542.816406 430.292969 543.042969 429.742188 C 543.269531 429.195312 543.441406 428.628906 543.558594 428.046875 C 543.671875 427.464844 543.730469 426.878906 543.730469 426.285156 L 543.730469 390.117188 C 543.730469 389.523438 543.671875 388.9375 543.558594 388.355469 C 543.441406 387.773438 543.269531 387.207031 543.042969 386.660156 C 542.816406 386.109375 542.535156 385.589844 542.207031 385.09375 C 541.878906 384.601562 541.503906 384.144531 541.082031 383.726562 C 540.664062 383.304688 540.207031 382.929688 539.710938 382.601562 C 539.21875 382.269531 538.699219 381.992188 538.148438 381.765625 C 537.601562 381.539062 537.035156 381.367188 536.453125 381.25 C 535.871094 381.136719 535.28125 381.078125 534.6875 381.078125 C 534.09375 381.078125 533.507812 381.136719 532.925781 381.25 C 532.34375 381.367188 531.777344 381.539062 531.230469 381.765625 C 530.679688 381.992188 530.160156 382.269531 529.667969 382.601562 C 529.171875 382.929688 528.714844 383.304688 528.296875 383.726562 C 527.875 384.144531 527.5 384.601562 527.171875 385.09375 C 526.839844 385.589844 526.5625 386.109375 526.335938 386.660156 C 526.109375 387.207031 525.9375 387.773438 525.820312 388.355469 C 525.707031 388.9375 525.648438 389.523438 525.648438 390.117188 L 525.648438 417.242188 L 505.574219 417.242188 L 489.480469 351.78125 C 489.359375 351.285156 489.195312 350.800781 488.992188 350.332031 C 488.785156 349.859375 488.542969 349.410156 488.261719 348.984375 C 487.976562 348.554688 487.664062 348.152344 487.3125 347.777344 C 486.960938 347.402344 486.582031 347.0625 486.175781 346.75 C 485.765625 346.441406 485.335938 346.167969 484.878906 345.929688 C 484.425781 345.691406 483.953125 345.496094 483.464844 345.339844 C 482.976562 345.183594 482.480469 345.070312 481.972656 344.996094 C 481.464844 344.925781 480.953125 344.898438 480.441406 344.910156 L 409.738281 344.910156 C 410.625 342.808594 411.667969 340.78125 412.867188 338.839844 C 414.066406 336.894531 415.410156 335.054688 416.890625 333.316406 C 418.375 331.578125 419.980469 329.964844 421.714844 328.476562 C 423.445312 326.984375 425.28125 325.636719 427.21875 324.429688 C 429.160156 323.222656 431.179688 322.171875 433.28125 321.273438 C 435.382812 320.378906 437.539062 319.648438 439.753906 319.085938 C 441.96875 318.523438 444.210938 318.132812 446.484375 317.914062 C 448.757812 317.695312 451.035156 317.65625 453.316406 317.789062 L 525.648438 317.789062 C 550.601562 317.789062 570.855469 333.972656 570.855469 353.953125 Z M 570.855469 435.324219 " fill-opacity="1" fill-rule="nonzero"></path></g><g clip-path="url(#7c22349a82)"><path fill="#8d0101" d="M 448.886719 82.710938 C 448.886719 81.378906 448.855469 80.050781 448.789062 78.71875 C 448.722656 77.390625 448.625 76.0625 448.496094 74.734375 C 448.363281 73.410156 448.203125 72.089844 448.003906 70.773438 C 447.808594 69.453125 447.582031 68.144531 447.324219 66.835938 C 447.0625 65.53125 446.769531 64.230469 446.449219 62.941406 C 446.125 61.648438 445.769531 60.363281 445.382812 59.089844 C 444.996094 57.816406 444.578125 56.550781 444.128906 55.296875 C 443.679688 54.042969 443.203125 52.800781 442.691406 51.570312 C 442.183594 50.339844 441.644531 49.125 441.074219 47.921875 C 440.503906 46.714844 439.90625 45.527344 439.277344 44.351562 C 438.652344 43.179688 437.996094 42.019531 437.308594 40.878906 C 436.625 39.734375 435.914062 38.609375 435.171875 37.503906 C 434.433594 36.394531 433.667969 35.308594 432.871094 34.238281 C 432.078125 33.167969 431.261719 32.117188 430.414062 31.089844 C 429.570312 30.058594 428.703125 29.050781 427.808594 28.066406 C 426.914062 27.078125 425.996094 26.113281 425.054688 25.171875 C 424.113281 24.230469 423.148438 23.3125 422.160156 22.417969 C 421.171875 21.523438 420.164062 20.65625 419.136719 19.808594 C 418.105469 18.964844 417.058594 18.144531 415.988281 17.351562 C 414.917969 16.558594 413.828125 15.792969 412.722656 15.054688 C 411.613281 14.3125 410.488281 13.601562 409.347656 12.917969 C 408.207031 12.230469 407.046875 11.574219 405.871094 10.949219 C 404.699219 10.320312 403.507812 9.722656 402.304688 9.152344 C 401.101562 8.582031 399.882812 8.042969 398.652344 7.535156 C 397.421875 7.023438 396.179688 6.542969 394.925781 6.097656 C 393.671875 5.648438 392.410156 5.230469 391.136719 4.84375 C 389.859375 4.457031 388.578125 4.101562 387.285156 3.777344 C 385.992188 3.453125 384.695312 3.164062 383.390625 2.902344 C 382.082031 2.644531 380.769531 2.414062 379.453125 2.21875 C 378.136719 2.023438 376.816406 1.863281 375.488281 1.730469 C 374.164062 1.601562 372.835938 1.503906 371.507812 1.4375 C 370.175781 1.371094 368.847656 1.339844 367.515625 1.339844 C 358.75 1.339844 350.21875 2.753906 341.925781 5.589844 C 340.894531 4.578125 339.835938 3.59375 338.753906 2.640625 C 337.667969 1.683594 336.558594 0.757812 335.425781 -0.136719 C 334.292969 -1.03125 333.136719 -1.898438 331.957031 -2.730469 C 330.777344 -3.566406 329.574219 -4.367188 328.351562 -5.136719 C 327.128906 -5.910156 325.886719 -6.644531 324.625 -7.351562 C 323.363281 -8.054688 322.085938 -8.722656 320.785156 -9.359375 C 319.488281 -9.996094 318.175781 -10.597656 316.847656 -11.164062 C 315.515625 -11.726562 314.171875 -12.257812 312.816406 -12.753906 C 311.457031 -13.246094 310.089844 -13.703125 308.707031 -14.125 C 307.324219 -14.546875 305.933594 -14.933594 304.527344 -15.277344 C 303.125 -15.625 301.714844 -15.9375 300.296875 -16.207031 C 298.878906 -16.480469 297.453125 -16.714844 296.019531 -16.910156 C 294.589844 -17.105469 293.152344 -17.265625 291.714844 -17.382812 C 290.273438 -17.503906 288.832031 -17.585938 287.386719 -17.628906 C 285.941406 -17.671875 284.5 -17.675781 283.054688 -17.640625 C 281.609375 -17.605469 280.167969 -17.535156 278.726562 -17.421875 C 277.285156 -17.3125 275.847656 -17.164062 274.417969 -16.976562 C 272.984375 -16.789062 271.558594 -16.5625 270.136719 -16.300781 C 268.714844 -16.035156 267.304688 -15.734375 265.898438 -15.394531 C 264.496094 -15.058594 263.097656 -14.679688 261.714844 -14.269531 C 260.332031 -13.855469 258.957031 -13.40625 257.597656 -12.917969 C 256.238281 -12.433594 254.890625 -11.910156 253.558594 -11.351562 C 252.222656 -10.796875 250.90625 -10.203125 249.605469 -9.574219 C 248.304688 -8.945312 247.019531 -8.285156 245.753906 -7.585938 C 244.488281 -6.890625 243.242188 -6.160156 242.015625 -5.398438 C 240.789062 -4.636719 239.582031 -3.839844 238.398438 -3.015625 C 237.210938 -2.1875 236.050781 -1.328125 234.910156 -0.441406 C 233.773438 0.449219 232.65625 1.367188 231.566406 2.316406 C 230.476562 3.265625 229.414062 4.242188 228.375 5.246094 C 227.335938 6.25 226.328125 7.28125 225.34375 8.34375 C 224.359375 9.402344 223.40625 10.484375 222.480469 11.59375 C 221.554688 12.703125 220.660156 13.835938 219.796875 14.996094 C 218.929688 16.152344 218.097656 17.332031 217.292969 18.535156 C 216.492188 19.734375 215.722656 20.957031 214.984375 22.199219 C 214.25 23.445312 213.546875 24.703125 212.875 25.984375 C 212.207031 27.265625 211.570312 28.5625 210.96875 29.875 C 210.367188 31.191406 209.804688 32.519531 209.273438 33.863281 C 208.742188 35.207031 208.25 36.566406 207.792969 37.9375 C 207.335938 39.304688 206.914062 40.6875 206.53125 42.082031 C 206.144531 43.472656 205.800781 44.875 205.488281 46.289062 C 205.179688 47.699219 204.910156 49.117188 204.675781 50.542969 C 204.441406 51.96875 204.246094 53.402344 204.089844 54.835938 C 203.929688 56.273438 203.8125 57.710938 203.730469 59.15625 C 203.648438 60.597656 203.605469 62.042969 203.601562 63.484375 C 203.597656 64.929688 203.632812 66.375 203.707031 67.816406 C 203.78125 69.261719 203.890625 70.703125 204.039062 72.136719 C 204.191406 73.574219 204.378906 75.007812 204.605469 76.433594 C 204.832031 77.863281 205.09375 79.28125 205.394531 80.695312 C 205.695312 82.109375 206.035156 83.511719 206.414062 84.90625 C 206.789062 86.300781 207.203125 87.6875 207.652344 89.058594 C 208.101562 90.433594 208.589844 91.792969 209.113281 93.140625 C 209.632812 94.484375 210.191406 95.820312 210.785156 97.136719 C 211.378906 98.453125 212.007812 99.753906 212.671875 101.039062 C 213.332031 102.320312 214.03125 103.585938 214.757812 104.832031 C 215.488281 106.082031 216.253906 107.308594 217.046875 108.511719 C 217.84375 109.71875 218.671875 110.902344 219.53125 112.066406 C 220.386719 113.226562 221.277344 114.367188 222.195312 115.480469 C 223.117188 116.59375 224.0625 117.683594 225.042969 118.75 C 226.019531 119.8125 227.023438 120.851562 228.054688 121.863281 C 229.089844 122.871094 230.148438 123.855469 231.234375 124.808594 C 232.316406 125.761719 233.425781 126.6875 234.5625 127.582031 C 235.695312 128.476562 236.851562 129.34375 238.03125 130.175781 C 239.214844 131.007812 240.414062 131.8125 241.636719 132.582031 C 242.859375 133.351562 244.101562 134.085938 245.363281 134.789062 L 241.386719 162.816406 C 241.238281 163.679688 241.21875 164.542969 241.320312 165.410156 C 241.421875 166.277344 241.648438 167.113281 241.992188 167.914062 C 242.335938 168.714844 242.789062 169.453125 243.347656 170.125 C 243.90625 170.796875 244.546875 171.375 245.273438 171.859375 C 246.804688 172.886719 248.492188 173.402344 250.335938 173.398438 C 251.949219 173.40625 253.457031 173.015625 254.859375 172.222656 L 303.140625 144.554688 C 306.203125 143.894531 309.21875 143.050781 312.179688 142.023438 C 317.578125 147.171875 323.570312 151.496094 330.15625 154.996094 C 336.746094 158.496094 343.679688 161.042969 350.96875 162.636719 L 399.070312 190.03125 C 400.46875 190.828125 401.976562 191.21875 403.589844 191.207031 C 405.433594 191.210938 407.121094 190.699219 408.652344 189.671875 C 409.378906 189.1875 410.019531 188.609375 410.578125 187.9375 C 411.136719 187.265625 411.589844 186.527344 411.933594 185.726562 C 412.277344 184.921875 412.503906 184.089844 412.605469 183.222656 C 412.710938 182.355469 412.6875 181.492188 412.539062 180.628906 L 408.5625 152.601562 C 411.605469 150.824219 414.519531 148.859375 417.304688 146.703125 C 420.089844 144.546875 422.726562 142.222656 425.210938 139.722656 C 427.695312 137.226562 430.003906 134.578125 432.144531 131.78125 C 434.285156 128.984375 436.238281 126.058594 437.996094 123.007812 C 439.757812 119.957031 441.3125 116.804688 442.664062 113.550781 C 444.015625 110.296875 445.152344 106.96875 446.070312 103.570312 C 446.988281 100.167969 447.683594 96.722656 448.15625 93.230469 C 448.625 89.742188 448.871094 86.234375 448.886719 82.710938 Z M 297.894531 126.832031 C 296.917969 127.042969 295.984375 127.375 295.09375 127.828125 L 261.550781 147.085938 L 263.449219 131.082031 C 263.539062 130.160156 263.492188 129.246094 263.304688 128.339844 C 263.113281 127.429688 262.792969 126.574219 262.339844 125.765625 C 261.886719 124.957031 261.324219 124.234375 260.648438 123.597656 C 259.972656 122.964844 259.21875 122.445312 258.382812 122.042969 C 257.265625 121.503906 256.164062 120.933594 255.078125 120.332031 C 253.992188 119.726562 252.925781 119.09375 251.878906 118.425781 C 250.828125 117.761719 249.800781 117.066406 248.792969 116.339844 C 247.785156 115.613281 246.800781 114.859375 245.839844 114.074219 C 244.875 113.289062 243.9375 112.476562 243.023438 111.640625 C 242.109375 110.800781 241.21875 109.933594 240.355469 109.042969 C 239.488281 108.152344 238.652344 107.234375 237.84375 106.292969 C 237.03125 105.351562 236.25 104.386719 235.496094 103.402344 C 234.746094 102.414062 234.019531 101.40625 233.328125 100.375 C 232.632812 99.347656 231.96875 98.296875 231.335938 97.230469 C 230.703125 96.160156 230.105469 95.074219 229.535156 93.96875 C 228.96875 92.867188 228.433594 91.746094 227.929688 90.609375 C 227.425781 89.476562 226.960938 88.324219 226.523438 87.164062 C 226.089844 86 225.6875 84.824219 225.324219 83.636719 C 224.957031 82.453125 224.628906 81.253906 224.332031 80.046875 C 224.039062 78.84375 223.777344 77.628906 223.554688 76.40625 C 223.328125 75.1875 223.140625 73.960938 222.992188 72.726562 C 222.839844 71.496094 222.722656 70.257812 222.644531 69.019531 C 222.566406 67.78125 222.523438 66.539062 222.519531 65.296875 C 222.511719 64.054688 222.542969 62.816406 222.609375 61.574219 C 222.675781 60.335938 222.78125 59.097656 222.921875 57.867188 C 223.0625 56.632812 223.238281 55.402344 223.449219 54.179688 C 223.660156 52.957031 223.910156 51.742188 224.195312 50.53125 C 224.476562 49.324219 224.796875 48.125 225.152344 46.933594 C 225.507812 45.742188 225.894531 44.566406 226.320312 43.398438 C 226.742188 42.230469 227.199219 41.078125 227.691406 39.9375 C 228.183594 38.796875 228.707031 37.671875 229.265625 36.5625 C 229.824219 35.453125 230.414062 34.359375 231.039062 33.285156 C 231.660156 32.210938 232.3125 31.15625 232.996094 30.121094 C 233.679688 29.085938 234.394531 28.070312 235.140625 27.074219 C 235.882812 26.082031 236.65625 25.109375 237.457031 24.160156 C 238.257812 23.214844 239.085938 22.289062 239.941406 21.390625 C 240.796875 20.488281 241.679688 19.617188 242.585938 18.765625 C 243.492188 17.917969 244.425781 17.097656 245.378906 16.304688 C 246.335938 15.511719 247.3125 14.75 248.3125 14.011719 C 249.316406 13.277344 250.335938 12.570312 251.378906 11.894531 C 252.417969 11.21875 253.480469 10.578125 254.558594 9.964844 C 255.640625 9.351562 256.738281 8.769531 257.851562 8.222656 C 258.964844 7.671875 260.09375 7.15625 261.238281 6.675781 C 262.382812 6.191406 263.539062 5.746094 264.710938 5.332031 C 265.882812 4.917969 267.0625 4.539062 268.257812 4.195312 C 269.449219 3.851562 270.652344 3.539062 271.863281 3.265625 C 273.074219 2.992188 274.292969 2.753906 275.515625 2.554688 C 276.742188 2.351562 277.972656 2.1875 279.207031 2.058594 C 280.441406 1.925781 281.679688 1.835938 282.921875 1.777344 C 284.160156 1.722656 285.402344 1.699219 286.644531 1.71875 C 287.882812 1.734375 289.125 1.785156 290.363281 1.875 C 291.601562 1.964844 292.835938 2.089844 294.066406 2.253906 C 295.296875 2.414062 296.523438 2.613281 297.742188 2.847656 C 298.960938 3.082031 300.175781 3.351562 301.378906 3.65625 C 302.582031 3.960938 303.773438 4.304688 304.957031 4.679688 C 306.140625 5.054688 307.3125 5.464844 308.472656 5.910156 C 309.632812 6.355469 310.777344 6.832031 311.90625 7.34375 C 313.039062 7.855469 314.15625 8.402344 315.253906 8.980469 C 316.351562 9.558594 317.433594 10.167969 318.496094 10.808594 C 319.558594 11.449219 320.605469 12.121094 321.628906 12.824219 C 322.652344 13.527344 323.652344 14.257812 324.632812 15.019531 C 325.613281 15.78125 326.570312 16.574219 327.503906 17.390625 C 328.441406 18.207031 329.347656 19.054688 330.234375 19.925781 C 331.117188 20.796875 331.976562 21.695312 332.808594 22.617188 C 333.640625 23.539062 334.441406 24.484375 335.21875 25.453125 C 335.996094 26.421875 336.742188 27.414062 337.457031 28.425781 C 338.175781 29.441406 338.863281 30.472656 339.519531 31.527344 C 340.175781 32.582031 340.800781 33.652344 341.394531 34.746094 C 341.988281 35.835938 342.550781 36.941406 343.078125 38.066406 C 343.605469 39.1875 344.101562 40.328125 344.5625 41.480469 C 345.023438 42.632812 345.453125 43.796875 345.84375 44.976562 C 346.238281 46.152344 346.597656 47.34375 346.917969 48.542969 C 347.242188 49.742188 347.53125 50.949219 347.78125 52.164062 C 348.03125 53.378906 348.25 54.601562 348.429688 55.832031 C 348.609375 57.058594 348.753906 58.292969 348.859375 59.527344 C 348.96875 60.765625 349.039062 62.003906 349.074219 63.246094 C 349.105469 64.488281 349.105469 65.730469 349.066406 66.96875 C 349.027344 68.210938 348.953125 69.449219 348.839844 70.6875 C 348.730469 71.921875 348.582031 73.15625 348.398438 74.382812 C 348.214844 75.609375 347.992188 76.832031 347.738281 78.046875 C 347.480469 79.261719 347.191406 80.46875 346.863281 81.667969 C 346.535156 82.863281 346.175781 84.050781 345.777344 85.230469 C 345.378906 86.40625 344.949219 87.570312 344.484375 88.71875 C 344.019531 89.871094 343.519531 91.007812 342.988281 92.128906 C 342.457031 93.25 341.890625 94.355469 341.292969 95.445312 C 340.695312 96.535156 340.066406 97.605469 339.40625 98.65625 C 338.746094 99.707031 338.054688 100.738281 337.335938 101.75 C 336.613281 102.761719 335.863281 103.75 335.085938 104.714844 C 334.304688 105.683594 333.5 106.625 332.664062 107.546875 C 331.828125 108.464844 330.96875 109.359375 330.082031 110.226562 C 329.195312 111.097656 328.28125 111.9375 327.34375 112.753906 C 326.410156 113.566406 325.449219 114.355469 324.464844 115.113281 C 323.480469 115.871094 322.476562 116.601562 321.453125 117.300781 C 320.425781 118 319.378906 118.667969 318.3125 119.304688 C 317.25 119.941406 316.164062 120.546875 315.066406 121.121094 C 313.964844 121.695312 312.847656 122.238281 311.714844 122.746094 C 310.582031 123.253906 309.433594 123.730469 308.273438 124.167969 C 307.113281 124.609375 305.941406 125.015625 304.753906 125.386719 C 303.570312 125.761719 302.375 126.097656 301.171875 126.398438 C 299.964844 126.699219 298.753906 126.964844 297.535156 127.195312 Z M 394.910156 139.761719 C 394.074219 140.164062 393.320312 140.683594 392.644531 141.320312 C 391.972656 141.957031 391.40625 142.675781 390.953125 143.484375 C 390.5 144.292969 390.179688 145.152344 389.992188 146.058594 C 389.800781 146.96875 389.753906 147.882812 389.847656 148.804688 L 392.105469 164.808594 L 358.5625 146 C 357.671875 145.546875 356.738281 145.21875 355.761719 145.007812 C 351.046875 144.085938 346.496094 142.640625 342.113281 140.667969 C 337.730469 138.699219 333.632812 136.257812 329.8125 133.34375 C 330.9375 132.625 332.042969 131.882812 333.132812 131.109375 C 334.222656 130.339844 335.292969 129.542969 336.339844 128.71875 C 337.390625 127.894531 338.417969 127.042969 339.425781 126.167969 C 340.433594 125.296875 341.421875 124.394531 342.382812 123.472656 C 343.347656 122.550781 344.289062 121.605469 345.203125 120.632812 C 346.121094 119.664062 347.015625 118.675781 347.882812 117.660156 C 348.75 116.648438 349.59375 115.613281 350.410156 114.558594 C 351.230469 113.503906 352.019531 112.429688 352.785156 111.335938 C 353.546875 110.242188 354.285156 109.128906 354.996094 108 C 355.707031 106.871094 356.386719 105.722656 357.039062 104.5625 C 357.695312 103.398438 358.320312 102.21875 358.914062 101.023438 C 359.507812 99.832031 360.074219 98.621094 360.609375 97.398438 C 361.148438 96.179688 361.652344 94.945312 362.128906 93.695312 C 362.601562 92.449219 363.046875 91.191406 363.460938 89.921875 C 363.875 88.65625 364.257812 87.375 364.605469 86.089844 C 364.957031 84.800781 365.277344 83.507812 365.5625 82.203125 C 365.851562 80.898438 366.105469 79.589844 366.328125 78.273438 C 366.550781 76.957031 366.738281 75.636719 366.898438 74.3125 C 367.054688 72.988281 367.179688 71.660156 367.269531 70.328125 C 367.363281 68.996094 367.421875 67.664062 367.449219 66.332031 C 367.476562 64.996094 367.46875 63.664062 367.429688 62.328125 C 367.390625 60.996094 367.320312 59.664062 367.214844 58.332031 C 367.109375 57.003906 366.972656 55.675781 366.804688 54.351562 C 366.632812 53.027344 366.429688 51.710938 366.195312 50.394531 C 365.960938 49.082031 365.695312 47.777344 365.394531 46.476562 C 365.097656 45.175781 364.765625 43.882812 364.402344 42.597656 C 364.039062 41.3125 363.644531 40.039062 363.21875 38.773438 C 362.796875 37.511719 362.339844 36.257812 361.851562 35.015625 C 361.363281 33.773438 360.847656 32.542969 360.300781 31.324219 C 359.753906 30.109375 359.175781 28.90625 358.570312 27.71875 C 357.960938 26.527344 357.328125 25.355469 356.664062 24.199219 C 355.996094 23.042969 355.304688 21.902344 354.585938 20.777344 C 358.847656 19.867188 363.15625 19.417969 367.515625 19.421875 C 369.289062 19.429688 371.058594 19.511719 372.828125 19.667969 C 374.59375 19.824219 376.351562 20.054688 378.097656 20.359375 C 379.847656 20.664062 381.578125 21.042969 383.292969 21.492188 C 385.011719 21.941406 386.707031 22.464844 388.378906 23.054688 C 390.050781 23.648438 391.695312 24.308594 393.3125 25.039062 C 394.925781 25.773438 396.511719 26.570312 398.058594 27.433594 C 399.609375 28.296875 401.121094 29.222656 402.59375 30.214844 C 404.0625 31.207031 405.492188 32.257812 406.875 33.367188 C 408.257812 34.480469 409.589844 35.648438 410.875 36.871094 C 412.160156 38.09375 413.394531 39.367188 414.570312 40.695312 C 415.75 42.023438 416.867188 43.394531 417.929688 44.816406 C 418.992188 46.238281 419.992188 47.699219 420.933594 49.207031 C 421.871094 50.710938 422.746094 52.253906 423.554688 53.832031 C 424.367188 55.410156 425.109375 57.019531 425.78125 58.660156 C 426.457031 60.300781 427.058594 61.96875 427.59375 63.660156 C 428.128906 65.351562 428.589844 67.0625 428.980469 68.796875 C 429.371094 70.527344 429.6875 72.269531 429.929688 74.027344 C 430.175781 75.785156 430.34375 77.550781 430.4375 79.320312 C 430.535156 81.09375 430.554688 82.863281 430.5 84.636719 C 430.445312 86.410156 430.316406 88.179688 430.113281 89.941406 C 429.914062 91.703125 429.636719 93.457031 429.285156 95.195312 C 428.9375 96.933594 428.511719 98.65625 428.019531 100.359375 C 427.523438 102.0625 426.957031 103.742188 426.324219 105.398438 C 425.6875 107.054688 424.980469 108.683594 424.210938 110.28125 C 423.4375 111.875 422.597656 113.4375 421.695312 114.964844 C 420.789062 116.492188 419.824219 117.976562 418.792969 119.421875 C 417.765625 120.867188 416.675781 122.265625 415.53125 123.621094 C 414.382812 124.972656 413.183594 126.277344 411.925781 127.53125 C 410.667969 128.78125 409.363281 129.980469 408.003906 131.125 C 406.648438 132.265625 405.246094 133.351562 403.796875 134.375 C 402.347656 135.398438 400.859375 136.363281 399.332031 137.261719 C 397.800781 138.160156 396.238281 138.996094 394.636719 139.761719 Z M 394.910156 139.761719 " fill-opacity="1" fill-rule="nonzero"></path></g><g clip-path="url(#217dce6976)"><path fill="#8d0101" d="M 646.007812 290.664062 C 644.230469 290.664062 642.457031 290.578125 640.6875 290.402344 C 638.921875 290.226562 637.164062 289.96875 635.421875 289.621094 C 633.679688 289.273438 631.957031 288.84375 630.257812 288.328125 C 628.558594 287.8125 626.886719 287.214844 625.246094 286.535156 C 623.605469 285.855469 622 285.09375 620.433594 284.257812 C 618.867188 283.421875 617.34375 282.507812 615.867188 281.519531 C 614.390625 280.535156 612.964844 279.476562 611.589844 278.347656 C 610.21875 277.222656 608.902344 276.03125 607.648438 274.773438 C 606.390625 273.519531 605.199219 272.203125 604.070312 270.828125 C 602.945312 269.457031 601.886719 268.03125 600.898438 266.554688 C 599.914062 265.078125 599 263.554688 598.164062 261.988281 C 597.324219 260.421875 596.566406 258.816406 595.886719 257.175781 C 595.207031 255.535156 594.609375 253.863281 594.09375 252.164062 C 593.578125 250.460938 593.148438 248.742188 592.800781 247 C 592.453125 245.253906 592.191406 243.5 592.019531 241.730469 C 591.84375 239.964844 591.757812 238.191406 591.757812 236.414062 C 591.757812 234.636719 591.84375 232.867188 592.019531 231.097656 C 592.191406 229.328125 592.453125 227.574219 592.800781 225.832031 C 593.148438 224.089844 593.578125 222.367188 594.09375 220.667969 C 594.609375 218.96875 595.207031 217.296875 595.886719 215.65625 C 596.566406 214.015625 597.324219 212.410156 598.164062 210.84375 C 599 209.277344 599.914062 207.753906 600.898438 206.277344 C 601.886719 204.800781 602.945312 203.375 604.070312 202 C 605.199219 200.625 606.390625 199.3125 607.648438 198.054688 C 608.902344 196.800781 610.21875 195.609375 611.589844 194.480469 C 612.964844 193.351562 614.390625 192.296875 615.867188 191.308594 C 617.34375 190.320312 618.867188 189.410156 620.433594 188.574219 C 622 187.734375 623.605469 186.976562 625.246094 186.296875 C 626.886719 185.617188 628.558594 185.019531 630.257812 184.503906 C 631.957031 183.988281 633.679688 183.554688 635.421875 183.210938 C 637.164062 182.863281 638.921875 182.601562 640.6875 182.429688 C 642.457031 182.253906 644.230469 182.167969 646.007812 182.167969 C 647.78125 182.167969 649.554688 182.253906 651.324219 182.429688 C 653.089844 182.601562 654.847656 182.863281 656.589844 183.210938 C 658.332031 183.554688 660.054688 183.988281 661.753906 184.503906 C 663.453125 185.019531 665.125 185.617188 666.765625 186.296875 C 668.40625 186.976562 670.011719 187.734375 671.578125 188.574219 C 673.144531 189.410156 674.667969 190.320312 676.144531 191.308594 C 677.621094 192.296875 679.046875 193.351562 680.421875 194.480469 C 681.792969 195.609375 683.109375 196.800781 684.367188 198.054688 C 685.621094 199.3125 686.8125 200.625 687.941406 202 C 689.066406 203.375 690.125 204.800781 691.113281 206.277344 C 692.097656 207.753906 693.011719 209.277344 693.847656 210.84375 C 694.6875 212.410156 695.445312 214.015625 696.125 215.65625 C 696.804688 217.296875 697.402344 218.96875 697.917969 220.667969 C 698.433594 222.367188 698.867188 224.089844 699.210938 225.832031 C 699.558594 227.574219 699.820312 229.328125 699.992188 231.097656 C 700.167969 232.867188 700.253906 234.636719 700.253906 236.414062 C 700.253906 238.191406 700.167969 239.964844 699.992188 241.730469 C 699.820312 243.5 699.558594 245.253906 699.210938 247 C 698.867188 248.742188 698.433594 250.460938 697.917969 252.164062 C 697.402344 253.863281 696.804688 255.535156 696.125 257.175781 C 695.445312 258.816406 694.6875 260.421875 693.847656 261.988281 C 693.011719 263.554688 692.097656 265.078125 691.113281 266.554688 C 690.125 268.03125 689.066406 269.457031 687.941406 270.828125 C 686.8125 272.203125 685.621094 273.519531 684.367188 274.773438 C 683.109375 276.03125 681.792969 277.222656 680.421875 278.347656 C 679.046875 279.476562 677.621094 280.535156 676.144531 281.519531 C 674.667969 282.507812 673.144531 283.421875 671.578125 284.257812 C 670.011719 285.09375 668.40625 285.855469 666.765625 286.535156 C 665.125 287.214844 663.453125 287.8125 661.753906 288.328125 C 660.054688 288.84375 658.332031 289.273438 656.589844 289.621094 C 654.847656 289.96875 653.089844 290.226562 651.324219 290.402344 C 649.554688 290.578125 647.78125 290.664062 646.007812 290.664062 Z M 646.007812 200.25 C 644.820312 200.25 643.640625 200.308594 642.460938 200.421875 C 641.28125 200.539062 640.113281 200.714844 638.949219 200.945312 C 637.789062 201.175781 636.640625 201.464844 635.507812 201.808594 C 634.375 202.152344 633.261719 202.550781 632.167969 203.003906 C 631.070312 203.457031 630.003906 203.960938 628.957031 204.519531 C 627.914062 205.078125 626.898438 205.6875 625.914062 206.34375 C 624.929688 207.003906 623.976562 207.707031 623.0625 208.457031 C 622.148438 209.210938 621.269531 210.003906 620.433594 210.84375 C 619.59375 211.679688 618.800781 212.554688 618.050781 213.472656 C 617.296875 214.386719 616.59375 215.335938 615.933594 216.324219 C 615.277344 217.308594 614.667969 218.320312 614.109375 219.367188 C 613.550781 220.410156 613.046875 221.480469 612.59375 222.574219 C 612.140625 223.667969 611.742188 224.785156 611.398438 225.917969 C 611.054688 227.050781 610.765625 228.199219 610.535156 229.359375 C 610.304688 230.519531 610.128906 231.691406 610.015625 232.871094 C 609.898438 234.050781 609.839844 235.230469 609.839844 236.414062 C 609.839844 237.597656 609.898438 238.78125 610.015625 239.960938 C 610.128906 241.140625 610.304688 242.308594 610.535156 243.46875 C 610.765625 244.632812 611.054688 245.78125 611.398438 246.914062 C 611.742188 248.046875 612.140625 249.160156 612.59375 250.253906 C 613.046875 251.347656 613.550781 252.417969 614.109375 253.464844 C 614.667969 254.507812 615.277344 255.523438 615.933594 256.507812 C 616.59375 257.492188 617.296875 258.441406 618.050781 259.359375 C 618.800781 260.273438 619.59375 261.152344 620.433594 261.988281 C 621.269531 262.824219 622.148438 263.621094 623.0625 264.371094 C 623.976562 265.121094 624.929688 265.828125 625.914062 266.484375 C 626.898438 267.144531 627.914062 267.75 628.957031 268.308594 C 630.003906 268.867188 631.070312 269.375 632.167969 269.828125 C 633.261719 270.28125 634.375 270.679688 635.507812 271.023438 C 636.640625 271.367188 637.789062 271.65625 638.949219 271.886719 C 640.113281 272.117188 641.28125 272.289062 642.460938 272.40625 C 643.640625 272.523438 644.820312 272.582031 646.007812 272.582031 C 647.191406 272.582031 648.371094 272.523438 649.550781 272.40625 C 650.730469 272.289062 651.898438 272.117188 653.0625 271.886719 C 654.222656 271.65625 655.371094 271.367188 656.503906 271.023438 C 657.636719 270.679688 658.75 270.28125 659.847656 269.828125 C 660.941406 269.375 662.007812 268.867188 663.054688 268.308594 C 664.097656 267.75 665.113281 267.144531 666.097656 266.484375 C 667.082031 265.828125 668.035156 265.121094 668.949219 264.371094 C 669.863281 263.621094 670.742188 262.824219 671.578125 261.988281 C 672.417969 261.152344 673.210938 260.273438 673.960938 259.359375 C 674.714844 258.441406 675.417969 257.492188 676.078125 256.507812 C 676.734375 255.523438 677.34375 254.507812 677.902344 253.464844 C 678.460938 252.417969 678.964844 251.347656 679.417969 250.253906 C 679.871094 249.160156 680.269531 248.046875 680.613281 246.914062 C 680.957031 245.78125 681.246094 244.632812 681.476562 243.46875 C 681.707031 242.308594 681.882812 241.140625 681.996094 239.960938 C 682.113281 238.78125 682.171875 237.597656 682.171875 236.414062 C 682.171875 235.230469 682.113281 234.050781 681.996094 232.871094 C 681.882812 231.691406 681.707031 230.519531 681.476562 229.359375 C 681.246094 228.199219 680.957031 227.050781 680.613281 225.917969 C 680.269531 224.785156 679.871094 223.667969 679.417969 222.574219 C 678.964844 221.480469 678.460938 220.410156 677.902344 219.367188 C 677.34375 218.320312 676.734375 217.308594 676.078125 216.324219 C 675.417969 215.335938 674.714844 214.386719 673.960938 213.472656 C 673.210938 212.554688 672.417969 211.679688 671.578125 210.84375 C 670.742188 210.003906 669.863281 209.210938 668.949219 208.457031 C 668.035156 207.707031 667.082031 207.003906 666.097656 206.34375 C 665.113281 205.6875 664.097656 205.078125 663.054688 204.519531 C 662.007812 203.960938 660.941406 203.457031 659.847656 203.003906 C 658.75 202.550781 657.636719 202.152344 656.503906 201.808594 C 655.371094 201.464844 654.222656 201.175781 653.0625 200.945312 C 651.898438 200.714844 650.730469 200.539062 649.550781 200.421875 C 648.371094 200.308594 647.191406 200.25 646.007812 200.25 Z M 646.007812 200.25 " fill-opacity="1" fill-rule="nonzero"></path></g><g clip-path="url(#01df95f0a2)"><path fill="#8d0101" d="M 202.976562 453.410156 L 227.390625 453.410156 C 225.378906 450.820312 223.832031 447.976562 222.75 444.882812 C 221.664062 441.789062 221.101562 438.601562 221.0625 435.324219 L 221.0625 353.953125 C 221.0625 324.027344 249.449219 299.703125 284.351562 299.703125 L 356.683594 299.703125 C 387.964844 299.703125 414.003906 319.324219 418.976562 344.910156 L 456.136719 344.910156 C 457.527344 344.902344 458.851562 345.203125 460.105469 345.804688 C 461.359375 346.410156 462.417969 347.253906 463.28125 348.347656 C 464.136719 349.449219 464.707031 350.679688 464.992188 352.046875 C 465.277344 353.414062 465.25 354.769531 464.90625 356.121094 L 440.585938 453.410156 L 525.9375 453.410156 L 501.34375 356.121094 C 501 354.769531 500.972656 353.414062 501.257812 352.046875 C 501.542969 350.679688 502.113281 349.449219 502.972656 348.347656 C 503.863281 347.21875 504.960938 346.347656 506.269531 345.746094 C 507.574219 345.140625 508.945312 344.863281 510.386719 344.910156 L 547.546875 344.910156 C 552.519531 319.324219 578.558594 299.703125 609.839844 299.703125 L 682.171875 299.703125 C 717.070312 299.703125 745.460938 324.027344 745.460938 353.953125 L 745.460938 435.324219 C 745.417969 438.601562 744.855469 441.789062 743.773438 444.882812 C 742.691406 447.976562 741.144531 450.820312 739.132812 453.410156 L 763.542969 453.410156 C 764.136719 453.410156 764.726562 453.464844 765.308594 453.582031 C 765.890625 453.699219 766.457031 453.871094 767.003906 454.097656 C 767.550781 454.324219 768.074219 454.601562 768.566406 454.933594 C 769.0625 455.261719 769.515625 455.636719 769.9375 456.054688 C 770.355469 456.476562 770.730469 456.933594 771.0625 457.425781 C 771.390625 457.921875 771.667969 458.441406 771.898438 458.988281 C 772.125 459.539062 772.296875 460.101562 772.410156 460.6875 C 772.527344 461.269531 772.585938 461.855469 772.585938 462.449219 C 772.585938 463.042969 772.527344 463.632812 772.410156 464.214844 C 772.296875 464.796875 772.125 465.359375 771.898438 465.910156 C 771.667969 466.457031 771.390625 466.980469 771.0625 467.472656 C 770.730469 467.964844 770.355469 468.421875 769.9375 468.84375 C 769.515625 469.261719 769.0625 469.636719 768.566406 469.96875 C 768.074219 470.296875 767.550781 470.574219 767.003906 470.800781 C 766.457031 471.03125 765.890625 471.203125 765.308594 471.316406 C 764.726562 471.433594 764.136719 471.492188 763.542969 471.492188 L 202.976562 471.492188 C 202.382812 471.492188 201.796875 471.433594 201.214844 471.316406 C 200.632812 471.203125 200.066406 471.03125 199.519531 470.804688 C 198.96875 470.574219 198.449219 470.296875 197.957031 469.96875 C 197.460938 469.636719 197.003906 469.261719 196.585938 468.84375 C 196.164062 468.421875 195.789062 467.964844 195.460938 467.472656 C 195.128906 466.980469 194.851562 466.457031 194.625 465.910156 C 194.398438 465.359375 194.226562 464.796875 194.109375 464.214844 C 193.996094 463.632812 193.9375 463.042969 193.9375 462.449219 C 193.9375 461.855469 193.996094 461.269531 194.109375 460.6875 C 194.226562 460.101562 194.398438 459.539062 194.625 458.988281 C 194.851562 458.441406 195.128906 457.921875 195.460938 457.425781 C 195.789062 456.933594 196.164062 456.476562 196.585938 456.054688 C 197.003906 455.636719 197.460938 455.261719 197.957031 454.933594 C 198.449219 454.601562 198.96875 454.324219 199.519531 454.097656 C 200.066406 453.871094 200.632812 453.699219 201.214844 453.582031 C 201.796875 453.464844 202.382812 453.410156 202.976562 453.410156 Z M 618.882812 453.410156 L 700.253906 453.410156 C 714.992188 453.410156 727.378906 445.089844 727.378906 435.324219 L 727.378906 353.953125 C 727.378906 333.972656 707.125 317.789062 682.171875 317.789062 L 609.839844 317.789062 C 607.558594 317.65625 605.28125 317.695312 603.007812 317.914062 C 600.734375 318.132812 598.492188 318.523438 596.277344 319.085938 C 594.0625 319.648438 591.90625 320.378906 589.804688 321.273438 C 587.703125 322.171875 585.683594 323.222656 583.742188 324.429688 C 581.804688 325.636719 579.96875 326.984375 578.238281 328.476562 C 576.503906 329.964844 574.898438 331.578125 573.414062 333.316406 C 571.933594 335.054688 570.589844 336.894531 569.390625 338.839844 C 568.191406 340.78125 567.148438 342.808594 566.261719 344.910156 L 636.964844 344.910156 C 637.476562 344.898438 637.988281 344.925781 638.496094 344.996094 C 639.003906 345.070312 639.5 345.183594 639.988281 345.339844 C 640.476562 345.496094 640.949219 345.691406 641.402344 345.929688 C 641.859375 346.167969 642.289062 346.441406 642.699219 346.75 C 643.105469 347.0625 643.484375 347.402344 643.835938 347.777344 C 644.1875 348.152344 644.5 348.554688 644.785156 348.984375 C 645.066406 349.410156 645.308594 349.859375 645.515625 350.332031 C 645.71875 350.800781 645.882812 351.285156 646.007812 351.78125 L 662.097656 417.242188 L 682.171875 417.242188 L 682.171875 390.117188 C 682.171875 389.523438 682.230469 388.9375 682.34375 388.355469 C 682.460938 387.773438 682.632812 387.207031 682.859375 386.660156 C 683.085938 386.109375 683.367188 385.589844 683.695312 385.09375 C 684.023438 384.601562 684.398438 384.144531 684.820312 383.726562 C 685.238281 383.304688 685.695312 382.929688 686.191406 382.601562 C 686.683594 382.269531 687.203125 381.992188 687.753906 381.765625 C 688.300781 381.539062 688.867188 381.367188 689.449219 381.25 C 690.03125 381.136719 690.621094 381.078125 691.210938 381.078125 C 691.804688 381.078125 692.394531 381.136719 692.976562 381.25 C 693.558594 381.367188 694.125 381.539062 694.671875 381.765625 C 695.222656 381.992188 695.742188 382.269531 696.234375 382.601562 C 696.730469 382.929688 697.1875 383.304688 697.605469 383.726562 C 698.027344 384.144531 698.402344 384.601562 698.730469 385.09375 C 699.058594 385.589844 699.339844 386.109375 699.566406 386.660156 C 699.792969 387.207031 699.964844 387.773438 700.082031 388.355469 C 700.195312 388.9375 700.253906 389.523438 700.253906 390.117188 L 700.253906 426.285156 C 700.253906 426.878906 700.195312 427.464844 700.082031 428.046875 C 699.964844 428.628906 699.792969 429.195312 699.566406 429.742188 C 699.339844 430.292969 699.058594 430.8125 698.730469 431.308594 C 698.402344 431.800781 698.027344 432.257812 697.605469 432.675781 C 697.1875 433.097656 696.730469 433.472656 696.234375 433.800781 C 695.742188 434.132812 695.222656 434.410156 694.671875 434.636719 C 694.125 434.863281 693.558594 435.035156 692.976562 435.152344 C 692.394531 435.265625 691.804688 435.324219 691.210938 435.324219 L 593.292969 435.324219 C 593.757812 436.640625 594.324219 437.910156 594.984375 439.140625 C 595.644531 440.367188 596.394531 441.539062 597.238281 442.648438 C 598.078125 443.761719 599 444.804688 600.003906 445.773438 C 601.003906 446.742188 602.074219 447.628906 603.214844 448.433594 C 604.351562 449.238281 605.546875 449.953125 606.792969 450.574219 C 608.042969 451.195312 609.332031 451.714844 610.660156 452.136719 C 611.992188 452.558594 613.34375 452.875 614.722656 453.089844 C 616.101562 453.304688 617.488281 453.410156 618.882812 453.410156 Z M 544.5625 453.410156 L 582.714844 453.410156 C 581.246094 451.472656 579.945312 449.425781 578.8125 447.277344 C 577.675781 445.128906 576.726562 442.898438 575.957031 440.59375 C 575.1875 438.285156 574.613281 435.933594 574.230469 433.53125 C 573.847656 431.132812 573.660156 428.714844 573.675781 426.285156 C 573.675781 425.691406 573.734375 425.101562 573.847656 424.519531 C 573.964844 423.9375 574.136719 423.371094 574.363281 422.824219 C 574.589844 422.277344 574.867188 421.753906 575.199219 421.261719 C 575.527344 420.765625 575.902344 420.3125 576.324219 419.890625 C 576.742188 419.472656 577.199219 419.097656 577.691406 418.765625 C 578.1875 418.4375 578.707031 418.15625 579.257812 417.929688 C 579.804688 417.703125 580.371094 417.53125 580.953125 417.417969 C 581.535156 417.300781 582.121094 417.242188 582.714844 417.242188 L 643.472656 417.242188 L 629.914062 362.996094 L 521.957031 362.996094 Z M 421.960938 453.410156 L 444.5625 362.996094 L 336.609375 362.996094 L 323.046875 417.242188 L 383.804688 417.242188 C 384.398438 417.242188 384.988281 417.300781 385.570312 417.417969 C 386.152344 417.53125 386.71875 417.703125 387.265625 417.929688 C 387.8125 418.15625 388.335938 418.4375 388.828125 418.765625 C 389.324219 419.097656 389.78125 419.472656 390.199219 419.890625 C 390.617188 420.3125 390.992188 420.765625 391.324219 421.261719 C 391.652344 421.753906 391.933594 422.277344 392.160156 422.824219 C 392.386719 423.371094 392.558594 423.9375 392.671875 424.519531 C 392.789062 425.101562 392.847656 425.691406 392.847656 426.285156 C 392.859375 428.714844 392.675781 431.132812 392.292969 433.53125 C 391.910156 435.933594 391.332031 438.285156 390.566406 440.59375 C 389.796875 442.898438 388.84375 445.128906 387.710938 447.277344 C 386.578125 449.425781 385.273438 451.472656 383.804688 453.410156 Z M 239.144531 435.324219 C 239.144531 445.089844 251.53125 453.410156 266.269531 453.410156 L 347.640625 453.410156 C 349.035156 453.410156 350.421875 453.304688 351.800781 453.089844 C 353.175781 452.875 354.53125 452.558594 355.859375 452.136719 C 357.191406 451.714844 358.480469 451.195312 359.726562 450.574219 C 360.976562 449.953125 362.171875 449.238281 363.308594 448.433594 C 364.449219 447.628906 365.519531 446.742188 366.519531 445.773438 C 367.523438 444.804688 368.445312 443.761719 369.285156 442.648438 C 370.125 441.539062 370.878906 440.367188 371.539062 439.140625 C 372.199219 437.910156 372.761719 436.640625 373.226562 435.324219 L 275.308594 435.324219 C 274.714844 435.324219 274.128906 435.265625 273.546875 435.152344 C 272.964844 435.035156 272.398438 434.863281 271.847656 434.636719 C 271.300781 434.410156 270.78125 434.132812 270.285156 433.800781 C 269.792969 433.472656 269.335938 433.097656 268.917969 432.675781 C 268.496094 432.257812 268.121094 431.800781 267.792969 431.308594 C 267.460938 430.8125 267.183594 430.292969 266.957031 429.742188 C 266.730469 429.195312 266.558594 428.628906 266.441406 428.046875 C 266.324219 427.464844 266.269531 426.878906 266.269531 426.285156 L 266.269531 390.117188 C 266.269531 389.523438 266.324219 388.9375 266.441406 388.355469 C 266.558594 387.773438 266.730469 387.207031 266.957031 386.660156 C 267.183594 386.109375 267.460938 385.589844 267.792969 385.09375 C 268.121094 384.601562 268.496094 384.144531 268.917969 383.726562 C 269.335938 383.304688 269.792969 382.929688 270.285156 382.601562 C 270.78125 382.269531 271.300781 381.992188 271.847656 381.765625 C 272.398438 381.539062 272.964844 381.367188 273.546875 381.25 C 274.128906 381.136719 274.714844 381.078125 275.308594 381.078125 C 275.902344 381.078125 276.492188 381.136719 277.074219 381.25 C 277.65625 381.367188 278.222656 381.539062 278.769531 381.765625 C 279.316406 381.992188 279.839844 382.269531 280.332031 382.601562 C 280.824219 382.929688 281.28125 383.304688 281.703125 383.726562 C 282.121094 384.144531 282.496094 384.601562 282.828125 385.09375 C 283.15625 385.589844 283.433594 386.109375 283.664062 386.660156 C 283.890625 387.207031 284.0625 387.773438 284.175781 388.355469 C 284.292969 388.9375 284.351562 389.523438 284.351562 390.117188 L 284.351562 417.242188 L 304.421875 417.242188 L 320.515625 351.78125 C 320.640625 351.285156 320.804688 350.800781 321.007812 350.332031 C 321.214844 349.859375 321.457031 349.410156 321.738281 348.984375 C 322.019531 348.554688 322.335938 348.152344 322.6875 347.777344 C 323.035156 347.402344 323.414062 347.0625 323.824219 346.75 C 324.230469 346.441406 324.664062 346.167969 325.117188 345.929688 C 325.574219 345.691406 326.042969 345.496094 326.53125 345.339844 C 327.019531 345.183594 327.519531 345.070312 328.027344 344.996094 C 328.535156 344.925781 329.046875 344.898438 329.558594 344.910156 L 400.261719 344.910156 C 399.375 342.808594 398.332031 340.78125 397.128906 338.839844 C 395.929688 336.894531 394.589844 335.054688 393.105469 333.316406 C 391.625 331.578125 390.015625 329.964844 388.285156 328.476562 C 386.554688 326.984375 384.71875 325.636719 382.777344 324.429688 C 380.839844 323.222656 378.820312 322.171875 376.71875 321.273438 C 374.617188 320.378906 372.457031 319.648438 370.246094 319.085938 C 368.03125 318.523438 365.789062 318.132812 363.511719 317.914062 C 361.238281 317.695312 358.960938 317.65625 356.683594 317.789062 L 284.351562 317.789062 C 259.398438 317.789062 239.144531 333.972656 239.144531 353.953125 Z M 239.144531 435.324219 " fill-opacity="1" fill-rule="nonzero"></path></g><g clip-path="url(#ae353cc5f0)"><path fill="#8d0101" d="M 361.113281 82.710938 C 361.113281 81.378906 361.144531 80.050781 361.210938 78.71875 C 361.277344 77.390625 361.375 76.0625 361.503906 74.734375 C 361.632812 73.410156 361.796875 72.089844 361.992188 70.773438 C 362.1875 69.453125 362.414062 68.144531 362.675781 66.835938 C 362.933594 65.53125 363.226562 64.230469 363.550781 62.941406 C 363.875 61.648438 364.230469 60.363281 364.617188 59.089844 C 365.003906 57.816406 365.421875 56.550781 365.867188 55.296875 C 366.316406 54.042969 366.796875 52.800781 367.304688 51.570312 C 367.816406 50.339844 368.355469 49.125 368.925781 47.921875 C 369.492188 46.714844 370.09375 45.527344 370.71875 44.351562 C 371.347656 43.179688 372.003906 42.019531 372.6875 40.878906 C 373.375 39.734375 374.085938 38.609375 374.824219 37.503906 C 375.566406 36.394531 376.332031 35.308594 377.125 34.238281 C 377.917969 33.167969 378.738281 32.117188 379.582031 31.089844 C 380.425781 30.058594 381.296875 29.050781 382.191406 28.066406 C 383.085938 27.078125 384.003906 26.113281 384.945312 25.171875 C 385.886719 24.230469 386.851562 23.3125 387.839844 22.417969 C 388.824219 21.523438 389.832031 20.65625 390.863281 19.808594 C 391.890625 18.964844 392.941406 18.144531 394.011719 17.351562 C 395.082031 16.558594 396.167969 15.792969 397.277344 15.054688 C 398.382812 14.3125 399.507812 13.601562 400.652344 12.917969 C 401.792969 12.230469 402.953125 11.574219 404.125 10.949219 C 405.300781 10.320312 406.488281 9.722656 407.691406 9.152344 C 408.898438 8.582031 410.113281 8.042969 411.34375 7.535156 C 412.574219 7.023438 413.816406 6.542969 415.070312 6.097656 C 416.324219 5.648438 417.589844 5.230469 418.863281 4.84375 C 420.136719 4.457031 421.421875 4.101562 422.710938 3.777344 C 424.003906 3.453125 425.304688 3.164062 426.609375 2.902344 C 427.914062 2.644531 429.226562 2.414062 430.542969 2.21875 C 431.863281 2.023438 433.183594 1.863281 434.507812 1.730469 C 435.832031 1.601562 437.160156 1.503906 438.492188 1.4375 C 439.820312 1.371094 441.152344 1.339844 442.484375 1.339844 C 451.25 1.339844 459.777344 2.753906 468.070312 5.589844 C 469.105469 4.578125 470.160156 3.59375 471.246094 2.640625 C 472.332031 1.683594 473.441406 0.757812 474.574219 -0.136719 C 475.707031 -1.03125 476.863281 -1.898438 478.042969 -2.730469 C 479.222656 -3.566406 480.425781 -4.367188 481.648438 -5.136719 C 482.871094 -5.910156 484.109375 -6.644531 485.375 -7.351562 C 486.636719 -8.054688 487.914062 -8.722656 489.210938 -9.359375 C 490.507812 -9.996094 491.824219 -10.597656 493.152344 -11.164062 C 494.480469 -11.726562 495.824219 -12.257812 497.183594 -12.753906 C 498.539062 -13.246094 499.910156 -13.703125 501.292969 -14.125 C 502.675781 -14.546875 504.066406 -14.933594 505.46875 -15.277344 C 506.871094 -15.625 508.28125 -15.9375 509.703125 -16.207031 C 511.121094 -16.480469 512.546875 -16.714844 513.976562 -16.910156 C 515.410156 -17.105469 516.84375 -17.265625 518.285156 -17.382812 C 519.726562 -17.503906 521.167969 -17.585938 522.609375 -17.628906 C 524.054688 -17.671875 525.5 -17.675781 526.945312 -17.640625 C 528.390625 -17.605469 529.832031 -17.535156 531.273438 -17.421875 C 532.710938 -17.3125 534.148438 -17.164062 535.582031 -16.976562 C 537.015625 -16.789062 538.441406 -16.5625 539.863281 -16.300781 C 541.28125 -16.035156 542.695312 -15.734375 544.101562 -15.394531 C 545.503906 -15.058594 546.898438 -14.679688 548.285156 -14.269531 C 549.667969 -13.855469 551.039062 -13.40625 552.402344 -12.917969 C 553.761719 -12.433594 555.109375 -11.910156 556.441406 -11.351562 C 557.773438 -10.796875 559.089844 -10.203125 560.394531 -9.574219 C 561.695312 -8.945312 562.976562 -8.285156 564.242188 -7.585938 C 565.507812 -6.890625 566.757812 -6.160156 567.984375 -5.398438 C 569.210938 -4.636719 570.417969 -3.839844 571.601562 -3.015625 C 572.785156 -2.1875 573.949219 -1.328125 575.085938 -0.441406 C 576.226562 0.449219 577.339844 1.367188 578.429688 2.316406 C 579.519531 3.265625 580.585938 4.242188 581.621094 5.246094 C 582.660156 6.25 583.671875 7.28125 584.65625 8.34375 C 585.636719 9.402344 586.59375 10.484375 587.519531 11.59375 C 588.441406 12.703125 589.339844 13.835938 590.203125 14.996094 C 591.066406 16.152344 591.902344 17.332031 592.703125 18.535156 C 593.507812 19.734375 594.277344 20.957031 595.011719 22.199219 C 595.75 23.445312 596.453125 24.703125 597.121094 25.984375 C 597.792969 27.265625 598.429688 28.5625 599.027344 29.875 C 599.628906 31.191406 600.195312 32.519531 600.726562 33.863281 C 601.253906 35.207031 601.75 36.566406 602.207031 37.9375 C 602.664062 39.304688 603.085938 40.6875 603.46875 42.082031 C 603.851562 43.472656 604.199219 44.875 604.507812 46.289062 C 604.816406 47.699219 605.089844 49.117188 605.324219 50.542969 C 605.558594 51.96875 605.753906 53.402344 605.910156 54.835938 C 606.066406 56.273438 606.1875 57.710938 606.269531 59.15625 C 606.347656 60.597656 606.390625 62.042969 606.394531 63.484375 C 606.398438 64.929688 606.363281 66.375 606.292969 67.816406 C 606.21875 69.261719 606.109375 70.703125 605.957031 72.136719 C 605.808594 73.574219 605.621094 75.007812 605.394531 76.433594 C 605.167969 77.863281 604.90625 79.28125 604.601562 80.695312 C 604.300781 82.109375 603.960938 83.511719 603.585938 84.90625 C 603.210938 86.300781 602.796875 87.6875 602.347656 89.058594 C 601.894531 90.433594 601.410156 91.792969 600.886719 93.140625 C 600.363281 94.484375 599.804688 95.820312 599.214844 97.136719 C 598.621094 98.453125 597.992188 99.753906 597.328125 101.039062 C 596.664062 102.320312 595.96875 103.585938 595.238281 104.832031 C 594.507812 106.082031 593.746094 107.308594 592.949219 108.511719 C 592.15625 109.71875 591.328125 110.902344 590.46875 112.066406 C 589.609375 113.226562 588.722656 114.367188 587.800781 115.480469 C 586.882812 116.59375 585.933594 117.683594 584.957031 118.75 C 583.980469 119.8125 582.976562 120.851562 581.941406 121.863281 C 580.910156 122.871094 579.851562 123.855469 578.765625 124.808594 C 577.679688 125.761719 576.570312 126.6875 575.4375 127.582031 C 574.304688 128.476562 573.144531 129.34375 571.964844 130.175781 C 570.785156 131.007812 569.585938 131.8125 568.359375 132.582031 C 567.136719 133.351562 565.894531 134.085938 564.632812 134.789062 L 568.613281 162.816406 C 568.757812 163.679688 568.78125 164.542969 568.679688 165.410156 C 568.574219 166.277344 568.351562 167.113281 568.003906 167.914062 C 567.660156 168.714844 567.210938 169.453125 566.652344 170.125 C 566.09375 170.796875 565.449219 171.375 564.722656 171.859375 C 563.191406 172.886719 561.503906 173.402344 559.660156 173.398438 C 558.050781 173.40625 556.542969 173.015625 555.140625 172.222656 L 506.859375 144.554688 C 503.792969 143.894531 500.78125 143.050781 497.816406 142.023438 C 492.421875 147.171875 486.429688 151.496094 479.839844 154.996094 C 473.253906 158.496094 466.316406 161.042969 459.03125 162.636719 L 410.929688 190.03125 C 409.527344 190.828125 408.019531 191.21875 406.410156 191.207031 C 404.566406 191.210938 402.878906 190.699219 401.347656 189.671875 C 400.621094 189.1875 399.976562 188.609375 399.417969 187.9375 C 398.859375 187.265625 398.410156 186.527344 398.0625 185.726562 C 397.71875 184.921875 397.496094 184.089844 397.390625 183.222656 C 397.289062 182.355469 397.3125 181.492188 397.457031 180.628906 L 401.4375 152.601562 C 398.394531 150.824219 395.480469 148.859375 392.695312 146.703125 C 389.910156 144.546875 387.273438 142.222656 384.789062 139.722656 C 382.304688 137.226562 379.992188 134.578125 377.851562 131.78125 C 375.710938 128.984375 373.761719 126.058594 372 123.007812 C 370.242188 119.957031 368.683594 116.804688 367.335938 113.550781 C 365.984375 110.296875 364.847656 106.96875 363.929688 103.570312 C 363.011719 100.167969 362.316406 96.722656 361.84375 93.230469 C 361.371094 89.742188 361.128906 86.234375 361.113281 82.710938 Z M 512.101562 126.832031 C 513.082031 127.042969 514.015625 127.375 514.90625 127.828125 L 548.449219 147.085938 L 546.550781 131.082031 C 546.457031 130.160156 546.507812 129.246094 546.695312 128.339844 C 546.886719 127.429688 547.207031 126.574219 547.660156 125.765625 C 548.113281 124.957031 548.675781 124.234375 549.351562 123.597656 C 550.023438 122.964844 550.78125 122.445312 551.613281 122.042969 C 552.734375 121.503906 553.835938 120.933594 554.921875 120.332031 C 556.007812 119.726562 557.074219 119.09375 558.121094 118.425781 C 559.167969 117.761719 560.195312 117.066406 561.203125 116.339844 C 562.210938 115.613281 563.195312 114.859375 564.160156 114.074219 C 565.121094 113.289062 566.0625 112.476562 566.976562 111.640625 C 567.890625 110.800781 568.78125 109.933594 569.644531 109.042969 C 570.507812 108.152344 571.34375 107.234375 572.15625 106.292969 C 572.964844 105.351562 573.746094 104.386719 574.5 103.402344 C 575.253906 102.414062 575.976562 101.40625 576.671875 100.375 C 577.367188 99.347656 578.027344 98.296875 578.660156 97.230469 C 579.292969 96.160156 579.894531 95.074219 580.460938 93.96875 C 581.03125 92.867188 581.566406 91.746094 582.070312 90.609375 C 582.570312 89.476562 583.039062 88.324219 583.472656 87.164062 C 583.910156 86 584.308594 84.824219 584.675781 83.636719 C 585.039062 82.453125 585.371094 81.253906 585.667969 80.046875 C 585.960938 78.84375 586.222656 77.628906 586.445312 76.40625 C 586.667969 75.1875 586.855469 73.960938 587.007812 72.726562 C 587.160156 71.496094 587.273438 70.257812 587.351562 69.019531 C 587.433594 67.78125 587.472656 66.539062 587.480469 65.296875 C 587.484375 64.054688 587.457031 62.816406 587.386719 61.574219 C 587.320312 60.335938 587.21875 59.097656 587.078125 57.867188 C 586.9375 56.632812 586.761719 55.402344 586.550781 54.179688 C 586.335938 52.957031 586.089844 51.742188 585.804688 50.53125 C 585.519531 49.324219 585.203125 48.125 584.847656 46.933594 C 584.492188 45.742188 584.101562 44.566406 583.679688 43.398438 C 583.253906 42.230469 582.796875 41.078125 582.304688 39.9375 C 581.816406 38.796875 581.289062 37.671875 580.730469 36.5625 C 580.171875 35.453125 579.582031 34.359375 578.960938 33.285156 C 578.339844 32.210938 577.6875 31.15625 577 30.121094 C 576.316406 29.085938 575.601562 28.070312 574.859375 27.074219 C 574.113281 26.082031 573.34375 25.109375 572.542969 24.160156 C 571.738281 23.214844 570.910156 22.289062 570.054688 21.390625 C 569.199219 20.488281 568.320312 19.617188 567.410156 18.765625 C 566.503906 17.917969 565.574219 17.097656 564.617188 16.304688 C 563.664062 15.511719 562.683594 14.75 561.683594 14.011719 C 560.683594 13.277344 559.664062 12.570312 558.621094 11.894531 C 557.578125 11.21875 556.519531 10.578125 555.4375 9.964844 C 554.359375 9.351562 553.261719 8.769531 552.148438 8.222656 C 551.035156 7.671875 549.90625 7.15625 548.761719 6.675781 C 547.617188 6.191406 546.457031 5.746094 545.289062 5.332031 C 544.117188 4.917969 542.933594 4.539062 541.742188 4.195312 C 540.550781 3.851562 539.347656 3.539062 538.136719 3.265625 C 536.925781 2.992188 535.707031 2.753906 534.480469 2.554688 C 533.257812 2.351562 532.027344 2.1875 530.792969 2.058594 C 529.554688 1.925781 528.320312 1.835938 527.078125 1.777344 C 525.839844 1.722656 524.597656 1.699219 523.355469 1.71875 C 522.113281 1.734375 520.875 1.785156 519.636719 1.875 C 518.398438 1.964844 517.164062 2.089844 515.929688 2.253906 C 514.699219 2.414062 513.476562 2.613281 512.253906 2.847656 C 511.035156 3.082031 509.824219 3.351562 508.621094 3.65625 C 507.417969 3.960938 506.222656 4.304688 505.039062 4.679688 C 503.855469 5.054688 502.6875 5.464844 501.527344 5.910156 C 500.367188 6.355469 499.222656 6.832031 498.089844 7.34375 C 496.960938 7.855469 495.84375 8.402344 494.746094 8.980469 C 493.644531 9.558594 492.566406 10.167969 491.5 10.808594 C 490.4375 11.449219 489.394531 12.121094 488.371094 12.824219 C 487.347656 13.527344 486.34375 14.257812 485.363281 15.019531 C 484.382812 15.78125 483.425781 16.574219 482.492188 17.390625 C 481.558594 18.207031 480.648438 19.054688 479.765625 19.925781 C 478.878906 20.796875 478.023438 21.695312 477.191406 22.617188 C 476.359375 23.539062 475.554688 24.484375 474.78125 25.453125 C 474.003906 26.421875 473.257812 27.414062 472.539062 28.425781 C 471.820312 29.441406 471.136719 30.472656 470.476562 31.527344 C 469.820312 32.582031 469.195312 33.652344 468.601562 34.746094 C 468.007812 35.835938 467.449219 36.941406 466.917969 38.066406 C 466.390625 39.1875 465.894531 40.328125 465.433594 41.480469 C 464.972656 42.632812 464.546875 43.796875 464.152344 44.976562 C 463.761719 46.152344 463.402344 47.34375 463.078125 48.542969 C 462.757812 49.742188 462.46875 50.949219 462.21875 52.164062 C 461.964844 53.378906 461.75 54.601562 461.570312 55.832031 C 461.390625 57.058594 461.246094 58.292969 461.140625 59.527344 C 461.03125 60.765625 460.960938 62.003906 460.925781 63.246094 C 460.890625 64.488281 460.894531 65.730469 460.933594 66.96875 C 460.972656 68.210938 461.046875 69.449219 461.15625 70.6875 C 461.269531 71.921875 461.417969 73.15625 461.601562 74.382812 C 461.785156 75.609375 462.003906 76.832031 462.261719 78.046875 C 462.515625 79.261719 462.808594 80.46875 463.136719 81.667969 C 463.460938 82.863281 463.824219 84.050781 464.222656 85.230469 C 464.617188 86.40625 465.050781 87.570312 465.515625 88.71875 C 465.980469 89.871094 466.476562 91.007812 467.011719 92.128906 C 467.542969 93.25 468.109375 94.355469 468.703125 95.445312 C 469.300781 96.535156 469.929688 97.605469 470.589844 98.65625 C 471.25 99.707031 471.941406 100.738281 472.664062 101.75 C 473.382812 102.761719 474.132812 103.75 474.914062 104.714844 C 475.691406 105.683594 476.5 106.625 477.335938 107.546875 C 478.167969 108.464844 479.03125 109.359375 479.917969 110.226562 C 480.804688 111.097656 481.714844 111.9375 482.652344 112.753906 C 483.589844 113.566406 484.550781 114.355469 485.535156 115.113281 C 486.515625 115.871094 487.519531 116.601562 488.546875 117.300781 C 489.574219 118 490.617188 118.667969 491.683594 119.304688 C 492.75 119.941406 493.832031 120.546875 494.933594 121.121094 C 496.035156 121.695312 497.152344 122.238281 498.285156 122.746094 C 499.417969 123.253906 500.566406 123.730469 501.726562 124.167969 C 502.886719 124.609375 504.058594 125.015625 505.242188 125.386719 C 506.429688 125.761719 507.625 126.097656 508.828125 126.398438 C 510.03125 126.699219 511.246094 126.964844 512.464844 127.195312 Z M 415.089844 139.761719 C 415.921875 140.164062 416.679688 140.683594 417.351562 141.320312 C 418.027344 141.957031 418.589844 142.675781 419.042969 143.484375 C 419.496094 144.292969 419.816406 145.152344 420.007812 146.058594 C 420.195312 146.96875 420.246094 147.882812 420.152344 148.804688 L 417.890625 164.808594 L 451.433594 146 C 452.328125 145.546875 453.261719 145.21875 454.238281 145.007812 C 458.953125 144.085938 463.503906 142.640625 467.882812 140.667969 C 472.265625 138.699219 476.367188 136.257812 480.1875 133.34375 C 479.0625 132.625 477.953125 131.882812 476.867188 131.109375 C 475.777344 130.339844 474.707031 129.542969 473.65625 128.71875 C 472.609375 127.894531 471.578125 127.042969 470.570312 126.167969 C 469.5625 125.296875 468.578125 124.394531 467.613281 123.472656 C 466.652344 122.550781 465.710938 121.605469 464.792969 120.632812 C 463.875 119.664062 462.984375 118.675781 462.117188 117.660156 C 461.246094 116.648438 460.40625 115.613281 459.585938 114.558594 C 458.769531 113.503906 457.980469 112.429688 457.214844 111.335938 C 456.449219 110.242188 455.710938 109.128906 455.003906 108 C 454.292969 106.871094 453.613281 105.722656 452.957031 104.5625 C 452.304688 103.398438 451.679688 102.21875 451.085938 101.023438 C 450.488281 99.832031 449.921875 98.621094 449.386719 97.398438 C 448.851562 96.179688 448.34375 94.945312 447.871094 93.695312 C 447.394531 92.449219 446.949219 91.191406 446.539062 89.921875 C 446.125 88.65625 445.742188 87.375 445.390625 86.089844 C 445.039062 84.800781 444.722656 83.507812 444.433594 82.203125 C 444.148438 80.898438 443.894531 79.589844 443.671875 78.273438 C 443.449219 76.957031 443.257812 75.636719 443.101562 74.3125 C 442.945312 72.988281 442.820312 71.660156 442.726562 70.328125 C 442.636719 68.996094 442.574219 67.664062 442.550781 66.332031 C 442.523438 64.996094 442.53125 63.664062 442.570312 62.328125 C 442.609375 60.996094 442.679688 59.664062 442.785156 58.332031 C 442.886719 57.003906 443.027344 55.675781 443.195312 54.351562 C 443.367188 53.027344 443.566406 51.710938 443.804688 50.394531 C 444.039062 49.082031 444.304688 47.777344 444.605469 46.476562 C 444.902344 45.175781 445.234375 43.882812 445.597656 42.597656 C 445.957031 41.3125 446.351562 40.039062 446.777344 38.773438 C 447.203125 37.511719 447.660156 36.257812 448.148438 35.015625 C 448.632812 33.773438 449.152344 32.542969 449.699219 31.324219 C 450.246094 30.109375 450.824219 28.90625 451.429688 27.71875 C 452.035156 26.527344 452.671875 25.355469 453.335938 24.199219 C 454 23.042969 454.691406 21.902344 455.414062 20.777344 C 451.152344 19.867188 446.84375 19.417969 442.484375 19.421875 C 440.710938 19.429688 438.941406 19.511719 437.171875 19.667969 C 435.40625 19.824219 433.648438 20.054688 431.898438 20.359375 C 430.152344 20.664062 428.417969 21.042969 426.703125 21.492188 C 424.988281 21.941406 423.292969 22.464844 421.621094 23.054688 C 419.949219 23.648438 418.304688 24.308594 416.6875 25.039062 C 415.070312 25.773438 413.488281 26.570312 411.9375 27.433594 C 410.390625 28.296875 408.878906 29.222656 407.40625 30.214844 C 405.933594 31.207031 404.507812 32.257812 403.125 33.367188 C 401.742188 34.480469 400.40625 35.648438 399.121094 36.871094 C 397.835938 38.09375 396.605469 39.367188 395.429688 40.695312 C 394.25 42.023438 393.128906 43.394531 392.066406 44.816406 C 391.003906 46.238281 390.003906 47.699219 389.066406 49.207031 C 388.125 50.710938 387.25 52.253906 386.441406 53.832031 C 385.632812 55.410156 384.890625 57.019531 384.214844 58.660156 C 383.542969 60.300781 382.9375 61.96875 382.40625 63.660156 C 381.871094 65.351562 381.410156 67.0625 381.019531 68.796875 C 380.628906 70.527344 380.3125 72.269531 380.066406 74.027344 C 379.824219 75.785156 379.65625 77.550781 379.558594 79.320312 C 379.464844 81.09375 379.445312 82.863281 379.5 84.636719 C 379.550781 86.410156 379.679688 88.179688 379.882812 89.941406 C 380.085938 91.703125 380.363281 93.457031 380.710938 95.195312 C 381.0625 96.933594 381.484375 98.65625 381.980469 100.359375 C 382.472656 102.0625 383.039062 103.742188 383.675781 105.398438 C 384.3125 107.054688 385.015625 108.683594 385.789062 110.28125 C 386.5625 111.875 387.398438 113.4375 388.304688 114.964844 C 389.207031 116.492188 390.175781 117.976562 391.203125 119.421875 C 392.234375 120.867188 393.320312 122.265625 394.46875 123.621094 C 395.613281 124.972656 396.816406 126.277344 398.074219 127.53125 C 399.328125 128.78125 400.636719 129.980469 401.992188 131.125 C 403.351562 132.265625 404.753906 133.351562 406.203125 134.375 C 407.648438 135.398438 409.136719 136.363281 410.667969 137.261719 C 412.195312 138.160156 413.761719 138.996094 415.359375 139.761719 Z M 415.089844 139.761719 " fill-opacity="1" fill-rule="nonzero"></path></g><g clip-path="url(#b812d41666)"><g clip-path="url(#717d794162)"><path fill="#8d0101" d="M 33.46875 451.785156 L 332.617188 451.785156 L 332.617188 472.578125 L 33.46875 472.578125 Z M 33.46875 451.785156 " fill-opacity="1" fill-rule="nonzero"></path></g></g><g clip-path="url(#0e1fc4e1f0)"><g clip-path="url(#974586125f)"><path fill="#8d0101" d="M 478.492188 451.785156 L 777.636719 451.785156 L 777.636719 472.578125 L 478.492188 472.578125 Z M 478.492188 451.785156 " fill-opacity="1" fill-rule="nonzero"></path></g></g></svg>